ply
format ascii 1.0
element vertex 392
property float x
property float y
property float z
end_header
0.444087088108062744 0.987903237342834473 0.20781669020652771
0.448560118675231934 0.991935491561889648 0.20781669020652771
0.466452240943908691 0.991935491561889648 0.20781669020652771
0.470925271511077881 0.987903237342834473 0.20781669020652771
0.466452240943908691 0.983870983123779297 0.20781669020652771
0.461979210376739502 0.963709652423858643 0.20781669020652771
0.444087088108062744 0.939516127109527588 0.20781669020652771
0.444087088108062744 0.931451618671417236 0.20781669020652771
0.435140997171401978 0.931451618671417236 0.20781669020652771
0.435140997171401978 0.935483872890472412 0.20781669020652771
0.430667966604232788 0.939516127109527588 0.20781669020652771
0.408302813768386841 0.0120967738330364227 0.305211126804351807
0.41277584433555603 0.0120967738330364227 0.305211126804351807
0.421721905469894409 0.0201612897217273712 0.305211126804351807
0.421721905469894409 0.0282258056104183197 0.305211126804351807
0.47987133264541626 0.0725806429982185364 0.305211126804351807
0.542493820190429688 0.0645161271095275879 0.305211126804351807
0.573805034160614014 0.0241935476660728455 0.305211126804351807
0.578278124332427979 0.0241935476660728455 0.305211126804351807
0.587224185466766357 0.016129031777381897 0.305211126804351807
0.596170246601104736 0.016129031777381897 0.305211126804351807
0.600643277168273926 0.0120967738330364227 0.305211126804351807
0.600643277168273926 5.5511151231257827e-17 0.305211126804351807
0.408302813768386841 5.5511151231257827e-17 0.305211126804351807
0.47539830207824707 0.923387110233306885 0.305211126804351807
0.493290454149246216 0.935483872890472412 0.305211126804351807
0.506709575653076172 0.931451618671417236 0.305211126804351807
0.511182606220245361 0.927419364452362061 0.305211126804351807
0.511182606220245361 0.907258093357086182 0.305211126804351807
0.47987133264541626 0.866935491561889648 0.305211126804351807
0.470925271511077881 0.834677398204803467 0.305211126804351807
0.47539830207824707 0.830645143985748291 0.305211126804351807
0.47987133264541626 0.814516127109527588 0.305211126804351807
0.47539830207824707 0.810483872890472412 0.305211126804351807
0.47539830207824707 0.802419364452362061 0.305211126804351807
0.470925271511077881 0.798387110233306885 0.305211126804351807
0.461979210376739502 0.810483872890472412 0.305211126804351807
0.461979210376739502 0.822580635547637939 0.305211126804351807
0.466452240943908691 0.826612889766693115 0.305211126804351807
0.461979210376739502 0.830645143985748291 0.305211126804351807
0.457506179809570312 0.830645143985748291 0.305211126804351807
0.453033149242401123 0.834677398204803467 0.305211126804351807
0.470925271511077881 0.766129016876220703 0.305211126804351807
0.470925271511077881 0.758064508438110352 0.305211126804351807
0.466452240943908691 0.762096762657165527 0.305211126804351807
0.488817423582077026 0.387096762657165527 0.305211126804351807
0.502236545085906982 0.399193555116653442 0.305211126804351807
0.502236545085906982 0.41129031777381897 0.305211126804351807
0.488817423582077026 0.427419364452362061 0.305211126804351807
0.52460169792175293 0.451612889766693115 0.305211126804351807
0.52012866735458374 0.455645173788070679 0.305211126804351807
0.52012866735458374 0.46370968222618103 0.305211126804351807
0.52460169792175293 0.46370968222618103 0.305211126804351807
0.538020789623260498 0.423387110233306885 0.305211126804351807
0.529074728488922119 0.423387110233306885 0.305211126804351807
0.52460169792175293 0.419354826211929321 0.305211126804351807
0.52460169792175293 0.407258063554763794 0.305211126804351807
0.52012866735458374 0.403225809335708618 0.305211126804351807
0.529074728488922119 0.391129046678543091 0.305211126804351807
0.533547759056091309 0.395161300897598267 0.305211126804351807
0.533547759056091309 0.399193555116653442 0.305211126804351807
0.538020789623260498 0.399193555116653442 0.305211126804351807
0.538020789623260498 0.387096762657165527 0.305211126804351807
0.542493820190429688 0.383064508438110352 0.305211126804351807
0.529074728488922119 0.375 0.305211126804351807
0.529074728488922119 0.354838699102401733 0.305211126804351807
0.52460169792175293 0.358870953321456909 0.305211126804351807
0.52460169792175293 0.366935491561889648 0.305211126804351807
0.52012866735458374 0.370967745780944824 0.305211126804351807
0.506709575653076172 0.358870953321456909 0.305211126804351807
0.511182606220245361 0.346774190664291382 0.305211126804351807
0.506709575653076172 0.342741936445236206 0.305211126804351807
0.493290454149246216 0.342741936445236206 0.305211126804351807
0.488817423582077026 0.346774190664291382 0.305211126804351807
0.488817423582077026 0.350806444883346558 0.305211126804351807
0.484344393014907837 0.354838699102401733 0.305211126804351807
0.564858973026275635 0.564516127109527588 0.305211126804351807
0.587224185466766357 0.564516127109527588 0.305211126804351807
0.600643277168273926 0.552419364452362061 0.305211126804351807
0.600643277168273926 0.544354856014251709 0.305211126804351807
0.569332003593444824 0.544354856014251709 0.305211126804351807
0.564858973026275635 0.548387110233306885 0.305211126804351807
0.341207295656204224 0.0120967738330364227 0.402605563402175903
0.345680326223373413 0.016129031777381897 0.402605563402175903
0.345680326223373413 0.0241935476660728455 0.402605563402175903
0.363572448492050171 0.0443548373878002167 0.402605563402175903
0.394883692264556885 0.133064523339271545 0.402605563402175903
0.408302813768386841 0.149193555116653442 0.402605563402175903
0.408302813768386841 0.157258063554763794 0.402605563402175903
0.403829753398895264 0.16129031777381897 0.402605563402175903
0.345680326223373413 0.169354841113090515 0.402605563402175903
0.354626387357711792 0.189516127109527588 0.402605563402175903
0.372518539428710938 0.189516127109527588 0.402605563402175903
0.376991569995880127 0.185483872890472412 0.402605563402175903
0.385937631130218506 0.193548381328582764 0.402605563402175903
0.390410661697387695 0.225806444883346558 0.402605563402175903
0.385937631130218506 0.229838714003562927 0.402605563402175903
0.363572448492050171 0.229838714003562927 0.402605563402175903
0.372518539428710938 0.25 0.402605563402175903
0.435140997171401978 0.330645173788070679 0.402605563402175903
0.435140997171401978 0.346774190664291382 0.402605563402175903
0.430667966604232788 0.350806444883346558 0.402605563402175903
0.408302813768386841 0.350806444883346558 0.402605563402175903
0.41277584433555603 0.354838699102401733 0.402605563402175903
0.448560118675231934 0.431451618671417236 0.402605563402175903
0.466452240943908691 0.455645173788070679 0.402605563402175903
0.457506179809570312 0.419354826211929321 0.402605563402175903
0.461979210376739502 0.415322571992874146 0.402605563402175903
0.466452240943908691 0.415322571992874146 0.402605563402175903
0.47987133264541626 0.431451618671417236 0.402605563402175903
0.488817423582077026 0.455645173788070679 0.402605563402175903
0.493290454149246216 0.455645173788070679 0.402605563402175903
0.497763484716415405 0.459677428007125854 0.402605563402175903
0.533547759056091309 0.540322601795196533 0.402605563402175903
0.569332003593444824 0.584677398204803467 0.402605563402175903
0.573805034160614014 0.584677398204803467 0.402605563402175903
0.578278124332427979 0.588709652423858643 0.402605563402175903
0.573805034160614014 0.592741906642913818 0.402605563402175903
0.542493820190429688 0.592741906642913818 0.402605563402175903
0.542493820190429688 0.59677422046661377 0.402605563402175903
0.578278124332427979 0.59677422046661377 0.402605563402175903
0.578278124332427979 0.592741906642913818 0.402605563402175903
0.582751154899597168 0.588709652423858643 0.402605563402175903
0.587224185466766357 0.592741906642913818 0.402605563402175903
0.614062368869781494 0.59677422046661377 0.402605563402175903
0.614062368869781494 0.588709652423858643 0.402605563402175903
0.605116307735443115 0.580645143985748291 0.402605563402175903
0.609589338302612305 0.576612889766693115 0.402605563402175903
0.618535399436950684 0.576612889766693115 0.402605563402175903
0.627481460571289062 0.568548381328582764 0.402605563402175903
0.618535399436950684 0.540322601795196533 0.402605563402175903
0.623008430004119873 0.536290347576141357 0.402605563402175903
0.618535399436950684 0.508064508438110352 0.402605563402175903
0.623008430004119873 0.504032254219055176 0.402605563402175903
0.596170246601104736 0.350806444883346558 0.402605563402175903
0.52460169792175293 0.282258063554763794 0.402605563402175903
0.52012866735458374 0.282258063554763794 0.402605563402175903
0.497763484716415405 0.258064508438110352 0.402605563402175903
0.506709575653076172 0.193548381328582764 0.402605563402175903
0.502236545085906982 0.189516127109527588 0.402605563402175903
0.502236545085906982 0.185483872890472412 0.402605563402175903
0.506709575653076172 0.181451618671417236 0.402605563402175903
0.529074728488922119 0.181451618671417236 0.402605563402175903
0.533547759056091309 0.177419349551200867 0.402605563402175903
0.538020789623260498 0.157258063554763794 0.402605563402175903
0.533547759056091309 0.157258063554763794 0.402605563402175903
0.529074728488922119 0.153225809335708618 0.402605563402175903
0.529074728488922119 0.149193555116653442 0.402605563402175903
0.533547759056091309 0.145161285996437073 0.402605563402175903
0.542493820190429688 0.145161285996437073 0.402605563402175903
0.542493820190429688 0.133064523339271545 0.402605563402175903
0.596170246601104736 0.0967741906642913818 0.402605563402175903
0.596170246601104736 0.0927419364452362061 0.402605563402175903
0.623008430004119873 0.0645161271095275879 0.402605563402175903
0.623008430004119873 0.0564516112208366394 0.402605563402175903
0.649846673011779785 0.0241935476660728455 0.402605563402175903
0.649846673011779785 0.016129031777381897 0.402605563402175903
0.654319703578948975 0.0120967738330364227 0.402605563402175903
0.663265764713287354 0.0120967738330364227 0.402605563402175903
0.663265764713287354 0.00403225794434547424 0.402605563402175903
0.658792734146118164 5.5511151231257827e-17 0.402605563402175903
0.341207295656204224 5.5511151231257827e-17 0.402605563402175903
0.341207295656204224 0.00403225794434547424 0.402605563402175903
0.336734265089035034 0.00806451588869094849 0.402605563402175903
0.488817423582077026 0.810483872890472412 0.402605563402175903
0.52460169792175293 0.84677422046661377 0.402605563402175903
0.533547759056091309 0.84677422046661377 0.402605563402175903
0.546966850757598877 0.830645143985748291 0.402605563402175903
0.529074728488922119 0.786290347576141357 0.402605563402175903
0.52012866735458374 0.77822577953338623 0.402605563402175903
0.502236545085906982 0.669354856014251709 0.402605563402175903
0.506709575653076172 0.665322601795196533 0.402605563402175903
0.502236545085906982 0.665322601795196533 0.402605563402175903
0.488817423582077026 0.681451618671417236 0.402605563402175903
0.47539830207824707 0.725806474685668945 0.402605563402175903
0.506709575653076172 0.612903237342834473 0.402605563402175903
0.52460169792175293 0.657258093357086182 0.402605563402175903
0.529074728488922119 0.661290347576141357 0.402605563402175903
0.52460169792175293 0.665322601795196533 0.402605563402175903
0.52012866735458374 0.665322601795196533 0.402605563402175903
0.52012866735458374 0.669354856014251709 0.402605563402175903
0.542493820190429688 0.697580635547637939 0.402605563402175903
0.551439881324768066 0.725806474685668945 0.402605563402175903
0.582751154899597168 0.75 0.402605563402175903
0.600643277168273926 0.75 0.402605563402175903
0.609589338302612305 0.741935491561889648 0.402605563402175903
0.614062368869781494 0.701612889766693115 0.402605563402175903
0.605116307735443115 0.689516127109527588 0.402605563402175903
0.573805034160614014 0.612903237342834473 0.402605563402175903
0.542493820190429688 0.612903237342834473 0.402605563402175903
0.52460169792175293 0.592741906642913818 0.402605563402175903
0.52012866735458374 0.59677422046661377 0.402605563402175903
0.493290454149246216 0.600806474685668945 0.402605563402175903
0.52012866735458374 0.245967745780944824 0.402605563402175903
0.52460169792175293 0.241935476660728455 0.402605563402175903
0.529074728488922119 0.21370968222618103 0.402605563402175903
0.52460169792175293 0.217741936445236206 0.402605563402175903
0.52460169792175293 0.225806444883346558 0.402605563402175903
0.52012866735458374 0.229838714003562927 0.402605563402175903
0.332261204719543457 0.00806451588869094849 0.5
0.345680326223373413 0.016129031777381897 0.5
0.385937631130218506 0.137096777558326721 0.5
0.381464600563049316 0.141129031777381897 0.5
0.403829753398895264 0.245967745780944824 0.5
0.399356722831726074 0.25 0.5
0.390410661697387695 0.278225809335708618 0.5
0.381464600563049316 0.28629031777381897 0.5
0.376991569995880127 0.326612889766693115 0.5
0.381464600563049316 0.330645173788070679 0.5
0.41277584433555603 0.407258063554763794 0.5
0.546966850757598877 0.59677422046661377 0.5
0.546966850757598877 0.608870983123779297 0.5
0.542493820190429688 0.612903237342834473 0.5
0.538020789623260498 0.612903237342834473 0.5
0.533547759056091309 0.629032254219055176 0.5
0.52460169792175293 0.637096762657165527 0.5
0.52012866735458374 0.673387110233306885 0.5
0.52460169792175293 0.677419364452362061 0.5
0.529074728488922119 0.741935491561889648 0.5
0.52012866735458374 0.75 0.5
0.529074728488922119 0.790322601795196533 0.5
0.52012866735458374 0.798387110233306885 0.5
0.515655636787414551 0.798387110233306885 0.5
0.52012866735458374 0.810483872890472412 0.5
0.529074728488922119 0.818548381328582764 0.5
0.52460169792175293 0.850806474685668945 0.5
0.529074728488922119 0.858870983123779297 0.5
0.582751154899597168 0.891129016876220703 0.5
0.591697216033935547 0.891129016876220703 0.5
0.618535399436950684 0.858870983123779297 0.5
0.618535399436950684 0.850806474685668945 0.5
0.631954491138458252 0.834677398204803467 0.5
0.636427521705627441 0.806451618671417236 0.5
0.618535399436950684 0.794354856014251709 0.5
0.614062368869781494 0.75 0.5
0.649846673011779785 0.705645143985748291 0.5
0.667738795280456543 0.65322577953338623 0.5
0.663265764713287354 0.649193525314331055 0.5
0.663265764713287354 0.645161271095275879 0.5
0.658792734146118164 0.645161271095275879 0.5
0.654319703578948975 0.641129016876220703 0.5
0.658792734146118164 0.637096762657165527 0.5
0.658792734146118164 0.629032254219055176 0.5
0.663265764713287354 0.625 0.5
0.658792734146118164 0.620967745780944824 0.5
0.667738795280456543 0.59677422046661377 0.5
0.663265764713287354 0.592741906642913818 0.5
0.569332003593444824 0.209677413105964661 0.5
0.564858973026275635 0.21370968222618103 0.5
0.564858973026275635 0.225806444883346558 0.5
0.555912911891937256 0.233870968222618103 0.5
0.551439881324768066 0.233870968222618103 0.5
0.546966850757598877 0.229838714003562927 0.5
0.546966850757598877 0.221774190664291382 0.5
0.538020789623260498 0.229838714003562927 0.5
0.533547759056091309 0.225806444883346558 0.5
0.52460169792175293 0.189516127109527588 0.5
0.529074728488922119 0.185483872890472412 0.5
0.538020789623260498 0.16129031777381897 0.5
0.529074728488922119 0.16129031777381897 0.5
0.497763484716415405 0.193548381328582764 0.5
0.493290454149246216 0.189516127109527588 0.5
0.497763484716415405 0.173387095332145691 0.5
0.515655636787414551 0.16129031777381897 0.5
0.511182606220245361 0.16129031777381897 0.5
0.506709575653076172 0.157258063554763794 0.5
0.529074728488922119 0.141129031777381897 0.5
0.538020789623260498 0.141129031777381897 0.5
0.52460169792175293 0.133064523339271545 0.5
0.560385942459106445 0.108870968222618103 0.5
0.569332003593444824 0.108870968222618103 0.5
0.578278124332427979 0.116935484111309052 0.5
0.605116307735443115 0.108870968222618103 0.5
0.605116307735443115 0.10483870655298233 0.5
0.618535399436950684 0.0967741906642913818 0.5
0.618535399436950684 0.0846774205565452576 0.5
0.636427521705627441 0.0645161271095275879 0.5
0.636427521705627441 0.0564516112208366394 0.5
0.631954491138458252 0.0524193532764911652 0.5
0.64537358283996582 0.0362903214991092682 0.5
0.649846673011779785 5.5511151231257827e-17 0.5
0.332261204719543457 5.5511151231257827e-17 0.5
0.41277584433555603 0.189516127109527588 0.597394466400146484
0.41724887490272522 0.185483872890472412 0.597394466400146484
0.41277584433555603 0.181451618671417236 0.597394466400146484
0.403829753398895264 0.181451618671417236 0.597394466400146484
0.394883692264556885 0.189516127109527588 0.597394466400146484
0.390410661697387695 0.189516127109527588 0.597394466400146484
0.421721905469894409 0.0120967738330364227 0.597394466400146484
0.439614027738571167 0.0120967738330364227 0.597394466400146484
0.47539830207824707 0.0403225794434547424 0.597394466400146484
0.506709575653076172 0.0282258056104183197 0.597394466400146484
0.511182606220245361 0.0322580635547637939 0.597394466400146484
0.542493820190429688 0.0282258056104183197 0.597394466400146484
0.560385942459106445 0.0120967738330364227 0.597394466400146484
0.573805034160614014 0.0120967738330364227 0.597394466400146484
0.573805034160614014 5.5511151231257827e-17 0.597394466400146484
0.41277584433555603 5.5511151231257827e-17 0.597394466400146484
0.435140997171401978 0.745967745780944824 0.597394466400146484
0.453033149242401123 0.822580635547637939 0.597394466400146484
0.461979210376739502 0.830645143985748291 0.597394466400146484
0.461979210376739502 0.838709652423858643 0.597394466400146484
0.497763484716415405 0.866935491561889648 0.597394466400146484
0.515655636787414551 0.866935491561889648 0.597394466400146484
0.529074728488922119 0.850806474685668945 0.597394466400146484
0.529074728488922119 0.830645143985748291 0.597394466400146484
0.52460169792175293 0.830645143985748291 0.597394466400146484
0.488817423582077026 0.806451618671417236 0.597394466400146484
0.484344393014907837 0.798387110233306885 0.597394466400146484
0.484344393014907837 0.790322601795196533 0.597394466400146484
0.470925271511077881 0.77822577953338623 0.597394466400146484
0.453033149242401123 0.677419364452362061 0.597394466400146484
0.448560118675231934 0.681451618671417236 0.597394466400146484
0.448560118675231934 0.689516127109527588 0.597394466400146484
0.439614027738571167 0.697580635547637939 0.597394466400146484
0.430667966604232788 0.737903237342834473 0.597394466400146484
0.497763484716415405 0.5 0.597394466400146484
0.511182606220245361 0.516129016876220703 0.597394466400146484
0.511182606220245361 0.520161271095275879 0.597394466400146484
0.515655636787414551 0.520161271095275879 0.597394466400146484
0.569332003593444824 0.552419364452362061 0.597394466400146484
0.569332003593444824 0.540322601795196533 0.597394466400146484
0.573805034160614014 0.536290347576141357 0.597394466400146484
0.591697216033935547 0.536290347576141357 0.597394466400146484
0.587224185466766357 0.532258093357086182 0.597394466400146484
0.573805034160614014 0.532258093357086182 0.597394466400146484
0.538020789623260498 0.504032254219055176 0.597394466400146484
0.538020789623260498 0.5 0.597394466400146484
0.533547759056091309 0.495967745780944824 0.597394466400146484
0.538020789623260498 0.491935491561889648 0.597394466400146484
0.542493820190429688 0.491935491561889648 0.597394466400146484
0.569332003593444824 0.508064508438110352 0.597394466400146484
0.573805034160614014 0.495967745780944824 0.597394466400146484
0.569332003593444824 0.491935491561889648 0.597394466400146484
0.555912911891937256 0.491935491561889648 0.597394466400146484
0.546966850757598877 0.483870953321456909 0.597394466400146484
0.551439881324768066 0.479838699102401733 0.597394466400146484
0.555912911891937256 0.479838699102401733 0.597394466400146484
0.538020789623260498 0.455645173788070679 0.597394466400146484
0.533547759056091309 0.439516127109527588 0.597394466400146484
0.529074728488922119 0.435483872890472412 0.597394466400146484
0.52460169792175293 0.439516127109527588 0.597394466400146484
0.52012866735458374 0.435483872890472412 0.597394466400146484
0.52012866735458374 0.427419364452362061 0.597394466400146484
0.497763484716415405 0.41129031777381897 0.597394466400146484
0.488817423582077026 0.41129031777381897 0.597394466400146484
0.484344393014907837 0.415322571992874146 0.597394466400146484
0.484344393014907837 0.419354826211929321 0.597394466400146484
0.47987133264541626 0.423387110233306885 0.597394466400146484
0.52012866735458374 0.689516127109527588 0.597394466400146484
0.529074728488922119 0.697580635547637939 0.597394466400146484
0.52460169792175293 0.701612889766693115 0.597394466400146484
0.52460169792175293 0.713709652423858643 0.597394466400146484
0.529074728488922119 0.713709652423858643 0.597394466400146484
0.542493820190429688 0.729838728904724121 0.597394466400146484
0.542493820190429688 0.745967745780944824 0.597394466400146484
0.596170246601104736 0.77822577953338623 0.597394466400146484
0.605116307735443115 0.77822577953338623 0.597394466400146484
0.609589338302612305 0.782258093357086182 0.597394466400146484
0.614062368869781494 0.77822577953338623 0.597394466400146484
0.618535399436950684 0.77822577953338623 0.597394466400146484
0.623008430004119873 0.754032254219055176 0.597394466400146484
0.609589338302612305 0.733870983123779297 0.597394466400146484
0.600643277168273926 0.705645143985748291 0.597394466400146484
0.591697216033935547 0.697580635547637939 0.597394466400146484
0.587224185466766357 0.701612889766693115 0.597394466400146484
0.569332003593444824 0.697580635547637939 0.597394466400146484
0.542493820190429688 0.669354856014251709 0.597394466400146484
0.542493820190429688 0.681451618671417236 0.597394466400146484
0.538020789623260498 0.685483872890472412 0.597394466400146484
0.533547759056091309 0.681451618671417236 0.597394466400146484
0.52012866735458374 0.681451618671417236 0.597394466400146484
0.435140997171401978 0.911290347576141357 0.694788873195648193
0.461979210376739502 0.939516127109527588 0.694788873195648193
0.470925271511077881 0.943548381328582764 0.694788873195648193
0.488817423582077026 0.943548381328582764 0.694788873195648193
0.493290454149246216 0.939516127109527588 0.694788873195648193
0.493290454149246216 0.927419364452362061 0.694788873195648193
0.47539830207824707 0.907258093357086182 0.694788873195648193
0.470925271511077881 0.907258093357086182 0.694788873195648193
0.435140997171401978 0.858870983123779297 0.694788873195648193
0.435140997171401978 0.854838728904724121 0.694788873195648193
0.430667966604232788 0.854838728904724121 0.694788873195648193
0.421721905469894409 0.84677422046661377 0.694788873195648193
0.41724887490272522 0.850806474685668945 0.694788873195648193
0.439614027738571167 0.987903237342834473 0.792183279991149902
0.453033149242401123 1 0.792183279991149902
0.470925271511077881 0.995967745780944824 0.792183279991149902
0.466452240943908691 0.983870983123779297 0.792183279991149902
0.448560118675231934 0.967741906642913818 0.792183279991149902
0.448560118675231934 0.963709652423858643 0.792183279991149902
0.435140997171401978 0.963709652423858643 0.792183279991149902
