ply
format ascii 1.0
element vertex 3085
property float x
property float y
property float z
element face 0
property list uchar int vertex_index
end_header
75 99 11
79 102 11
89 104 11
90 103 11
95 102 11
96 103 11
108 103 11
115 97 11
115 96 11
117 94 11
120 97 11
125 97 11
133 90 11
135 85 11
136 84 11
128 73 11
128 72 11
121 74 11
120 73 11
114 72 11
113 73 11
111 73 11
109 75 11
108 74 11
107 69 11
103 65 11
91 68 11
88 71 11
74 76 11
70 80 11
70 132 11
73 135 11
89 141 11
91 144 11
103 146 11
108 141 11
108 138 11
109 137 11
118 139 11
119 138 11
121 138 11
122 137 11
126 140 11
129 139 11
130 138 11
131 134 11
136 130 11
137 128 11
137 126 11
136 127 11
134 125 11
134 123 11
125 114 11
120 114 11
117 117 11
116 117 11
108 108 11
93 109 11
92 108 11
76 111 11
75 116 11
72 118 11
70 124 11
60 102 21
61 102 21
63 104 21
81 102 21
82 103 21
92 104 21
93 103 21
94 104 21
125 102 21
130 97 21
140 99 21
141 98 21
146 97 21
150 93 21
149 87 21
150 86 21
152 78 21
151 77 21
150 71 21
130 53 21
130 48 21
127 48 21
127 49 21
126 50 21
105 49 21
104 50 21
103 50 21
103 51 21
101 53 21
81 56 21
79 63 21
80 64 21
80 66 21
79 67 21
78 66 21
70 65 21
64 70 21
64 71 21
62 73 21
63 81 21
62 82 21
58 93 21
62 129 21
64 131 21
62 133 21
63 140 21
71 147 21
72 146 21
79 145 21
80 146 21
79 149 21
80 150 21
80 154 21
81 155 21
87 157 21
88 156 21
89 157 21
101 158 21
104 162 21
126 161 21
129 163 21
130 163 21
130 146 21
131 145 21
137 153 21
135 155 21
136 155 21
143 147 21
144 147 21
150 140 21
152 132 21
150 129 21
149 118 21
145 114 21
133 112 21
130 115 21
127 112 21
127 111 21
98 107 21
97 108 21
78 110 21
75 108 21
66 107 21
65 108 21
61 109 21
58 113 21
61 151 31
70 162 31
70 163 31
71 163 31
83 171 31
94 172 31
96 171 31
99 168 31
101 170 31
101 172 31
105 177 31
123 179 31
131 174 31
133 174 31
134 173 31
135 174 31
136 174 31
140 169 31
140 163 31
141 162 31
144 165 31
145 165 31
165 137 31
166 137 31
166 136 31
168 134 31
167 128 31
169 126 31
172 126 31
174 123 31
175 115 31
173 113 31
173 112 31
156 109 31
155 110 31
147 111 31
145 113 31
91 108 31
71 107 31
70 108 31
64 109 31
59 115 31
62 129 31
59 131 31
58 133 31
58 136 31
57 137 31
59 80 31
62 83 31
61 86 31
59 88 31
60 98 31
62 100 31
62 101 31
82 105 31
83 104 31
92 104 31
93 103 31
94 104 31
135 101 31
136 102 31
137 101 31
142 100 31
144 98 31
145 98 31
146 99 31
146 100 31
167 102 31
174 98 31
175 96 31
174 89 31
172 87 31
172 85 31
171 86 31
169 86 31
167 83 31
167 80 31
168 79 31
169 79 31
163 72 31
162 68 31
144 46 31
141 49 31
140 48 31
140 42 31
135 37 31
134 38 31
132 38 31
128 35 31
116 32 31
115 33 31
106 34 31
99 43 31
93 39 31
74 45 31
74 46 31
69 50 31
69 51 31
59 65 31
59 68 31
58 69 31
42 91 41
44 91 41
50 95 41
51 94 41
52 95 41
52 96 41
54 96 41
55 97 41
56 96 41
57 97 41
74 97 41
76 100 41
76 101 41
89 104 41
90 103 41
123 103 41
142 100 41
143 101 41
175 102 41
178 98 41
184 100 41
185 99 41
186 99 41
185 91 41
184 90 41
180 90 41
179 89 41
178 74 41
175 71 41
167 69 41
165 67 41
166 66 41
166 62 41
163 58 41
163 57 41
166 55 41
165 49 41
157 43 41
157 42 41
143 30 41
142 31 41
141 31 41
140 30 41
141 29 41
138 26 41
123 22 41
122 23 41
123 28 41
122 29 41
107 32 41
105 34 41
104 33 41
104 29 41
76 35 41
65 45 41
60 75 41
59 76 41
58 75 41
57 62 41
56 63 41
55 62 41
54 62 41
51 66 41
50 66 41
51 67 41
51 68 41
50 69 41
49 68 41
46 73 41
46 76 41
43 78 41
43 80 41
42 81 41
44 143 41
45 143 41
46 144 41
48 151 41
50 153 41
50 154 41
51 154 41
53 157 41
54 157 41
55 158 41
56 157 41
57 158 41
58 145 41
59 144 41
60 145 41
64 165 41
71 173 41
72 173 41
78 177 41
103 183 41
104 182 41
103 181 41
103 179 41
105 177 41
106 178 41
106 179 41
122 183 41
123 184 41
122 188 41
130 188 41
132 186 41
138 185 41
141 181 41
144 181 41
165 162 41
166 160 41
166 155 41
163 155 41
162 154 41
166 150 41
166 146 41
165 145 41
169 142 41
175 140 41
179 135 41
179 123 41
180 122 41
184 121 41
186 118 41
186 112 41
178 114 41
175 110 41
175 109 41
158 110 41
157 109 41
140 111 41
139 110 41
100 108 41
77 110 41
75 113 41
75 116 41
73 118 41
71 118 41
68 123 41
57 123 41
56 124 41
55 123 41
54 124 41
53 123 41
51 126 41
50 125 41
44 129 41
42 129 41
32 81 51
33 82 51
32 83 51
34 92 51
37 95 51
37 96 51
40 97 51
44 100 51
49 101 51
50 102 51
51 101 51
52 102 51
68 103 51
69 102 51
102 102 51
150 101 51
176 101 51
177 100 51
178 101 51
193 100 51
197 88 51
196 87 51
196 86 51
195 86 51
191 81 51
191 79 51
188 75 51
187 70 51
170 65 51
169 64 51
172 62 51
174 62 51
178 58 51
175 48 51
169 43 51
168 44 51
164 44 51
163 43 51
163 42 51
166 38 51
166 35 51
159 27 51
158 27 51
152 23 51
132 18 51
129 20 51
128 20 51
123 14 51
116 15 51
113 19 51
113 24 51
112 25 51
107 22 51
88 25 51
85 29 51
78 30 51
73 37 51
66 36 51
64 37 51
62 40 51
61 45 51
62 46 51
60 48 51
59 47 51
52 48 51
51 49 51
50 48 51
46 53 51
45 53 51
45 54 51
40 58 51
40 60 51
37 62 51
32 75 51
32 137 51
33 138 51
32 139 51
36 156 51
38 158 51
38 159 51
39 159 51
43 165 51
44 165 51
45 166 51
45 167 51
46 167 51
48 170 51
59 173 51
61 170 51
62 170 51
65 175 51
73 175 51
77 180 51
77 181 51
85 183 51
86 184 51
86 185 51
87 185 51
89 187 51
108 189 51
111 187 51
112 187 51
113 188 51
114 194 51
116 196 51
123 197 51
128 191 51
131 193 51
155 187 51
163 181 51
163 180 51
166 176 51
166 173 51
162 169 51
163 168 51
170 168 51
176 161 51
177 152 51
173 149 51
171 149 51
170 148 51
170 147 51
171 146 51
186 142 51
188 139 51
188 136 51
197 123 51
195 115 51
193 113 51
193 112 51
183 110 51
182 111 51
146 110 51
145 111 51
107 110 51
106 111 51
87 112 51
83 116 51
52 118 51
51 119 51
50 118 51
40 122 51
36 125 51
36 126 51
34 128 51
32 134 51
32 93 61
44 104 61
44 116 61
40 119 61
39 119 61
39 120 61
37 122 61
36 122 61
36 123 61
30 131 61
28 146 61
29 147 61
33 162 61
35 164 61
35 166 61
40 173 61
41 173 61
42 174 61
42 175 61
45 176 61
46 177 61
46 178 61
47 178 61
52 182 61
59 183 61
63 176 61
64 176 61
68 182 61
75 183 61
80 180 61
81 180 61
82 181 61
82 184 61
83 185 61
82 186 61
82 187 61
83 187 61
85 190 61
85 191 61
94 192 61
95 191 61
99 190 61
100 191 61
99 195 61
105 199 61
121 201 61
132 193 61
135 197 61
161 189 61
166 183 61
168 176 61
169 175 61
170 176 61
175 176 61
175 175 61
179 170 61
183 156 61
180 151 61
180 150 61
181 149 61
189 150 61
193 144 61
199 129 61
204 122 61
204 118 61
202 118 61
201 117 61
201 113 61
199 111 61
156 110 61
140 111 61
139 110 61
117 109 61
116 108 61
116 103 61
117 102 61
164 101 61
196 101 61
199 100 61
201 98 61
201 95 61
204 93 61
202 85 61
194 72 61
190 62 61
185 61 61
184 62 61
180 63 61
179 62 61
183 56 61
180 42 61
177 38 61
176 38 61
174 35 61
169 36 61
167 33 61
166 28 61
162 24 61
162 23 61
155 20 61
151 17 61
134 15 61
134 16 61
132 18 61
121 10 61
103 13 61
99 17 61
100 20 61
99 21 61
92 19 61
91 20 61
84 21 61
82 31 61
81 32 61
76 29 61
68 29 61
68 30 61
63 36 61
63 40 61
62 41 61
60 38 61
60 37 61
57 37 61
56 38 61
55 37 61
54 38 61
48 40 61
48 41 61
47 42 61
46 42 61
46 43 61
45 44 61
44 43 61
41 46 61
40 46 61
40 47 61
35 54 61
35 56 61
33 58 61
28 73 61
29 69 71
28 70 71
33 90 71
40 99 71
39 115 71
40 116 71
40 121 71
31 134 71
28 146 71
29 147 71
28 148 71
28 150 71
29 151 71
28 152 71
35 174 71
43 183 71
45 183 71
47 186 71
60 189 71
63 184 71
64 180 71
65 179 71
69 184 71
71 185 71
76 186 71
77 185 71
79 185 71
80 186 71
81 192 71
84 195 71
88 196 71
89 197 71
90 196 71
91 196 71
92 197 71
92 198 71
93 198 71
95 200 71
110 202 71
112 200 71
118 199 71
119 200 71
119 202 71
120 203 71
126 204 71
133 200 71
141 200 71
147 193 71
159 192 71
161 190 71
162 190 71
164 192 71
170 191 71
174 187 71
174 185 71
172 183 71
173 182 71
177 181 71
183 176 71
183 174 71
184 173 71
181 171 71
185 162 71
184 161 71
185 160 71
192 158 71
198 149 71
197 144 71
201 141 71
199 131 71
200 130 71
204 129 71
204 128 71
209 121 71
209 117 71
206 117 71
205 116 71
205 111 71
179 109 71
178 110 71
168 109 71
167 110 71
151 109 71
150 110 71
140 111 71
139 110 71
137 110 71
136 109 71
136 103 71
138 101 71
175 102 71
176 101 71
201 102 71
202 101 71
204 101 71
205 100 71
205 96 71
208 94 71
209 94 71
207 87 71
203 82 71
200 81 71
199 80 71
199 79 71
201 77 71
201 71 71
197 67 71
198 66 71
196 58 71
192 53 71
186 52 71
184 50 71
185 49 71
184 46 71
182 44 71
182 42 71
181 41 71
184 38 71
180 32 71
179 32 71
177 30 71
173 30 71
172 29 71
172 28 71
174 26 71
174 24 71
167 19 71
164 19 71
162 21 71
160 21 71
158 19 71
157 19 71
156 20 71
155 19 71
147 18 71
139 11 71
123 7 71
122 8 71
118 9 71
118 11 71
117 12 71
113 12 71
110 9 71
96 11 71
92 14 71
92 15 71
91 16 71
90 15 71
83 17 71
83 18 71
80 22 71
80 25 71
78 27 71
72 26 71
71 27 71
69 27 71
69 28 71
65 32 71
65 38 71
64 39 71
63 38 71
61 32 71
58 30 71
57 31 71
51 32 71
50 33 71
49 32 71
49 33 71
46 35 71
46 36 71
45 37 71
44 36 71
41 39 71
40 39 71
40 40 71
35 46 71
36 47 71
35 48 71
34 48 71
28 67 71
29 93 81
29 94 81
28 95 81
30 98 81
31 98 81
32 99 81
32 100 81
34 100 81
35 101 81
35 102 81
36 102 81
38 104 81
38 116 81
29 123 81
30 124 81
29 125 81
28 125 81
29 126 81
28 127 81
30 135 81
33 138 81
29 155 81
30 156 81
30 164 81
31 165 81
30 166 81
34 178 81
38 183 81
38 184 81
41 185 81
48 190 81
48 191 81
60 193 81
60 192 81
63 188 81
64 188 81
65 183 81
66 182 81
73 191 81
79 192 81
81 191 81
82 190 81
83 191 81
83 195 81
90 200 81
102 203 81
103 202 81
106 202 81
108 200 81
109 200 81
110 201 81
110 204 81
113 207 81
119 208 81
120 207 81
160 200 81
162 198 81
162 195 81
164 193 81
175 191 81
190 173 81
189 166 81
194 163 81
196 163 81
201 149 81
200 148 81
201 143 81
203 141 81
203 137 81
199 133 81
199 132 81
210 123 81
210 121 81
212 119 81
213 113 81
210 110 81
179 109 81
178 110 81
168 109 81
167 110 81
158 110 81
156 108 81
156 103 81
157 102 81
177 101 81
178 102 81
211 101 81
213 98 81
212 92 81
206 84 81
205 84 81
199 79 81
204 73 81
200 67 81
201 60 81
200 59 81
201 58 81
197 53 81
196 49 81
195 48 81
191 47 81
189 45 81
190 41 81
191 40 81
184 31 81
183 31 81
182 30 81
182 28 81
177 23 81
177 22 81
169 19 81
168 18 81
167 19 81
164 19 81
163 18 81
162 13 81
157 10 81
117 4 81
116 3 81
110 8 81
110 11 81
109 12 81
105 9 81
100 8 81
99 9 81
86 14 81
83 17 81
83 20 81
82 21 81
77 19 81
76 20 81
74 20 81
69 24 81
66 33 81
65 34 81
62 30 81
62 29 81
61 29 81
60 28 81
60 27 81
46 30 81
46 31 81
43 33 81
42 33 81
42 34 81
41 35 81
39 35 81
37 38 81
36 38 81
36 40 81
33 44 81
33 46 81
31 48 81
30 54 81
31 55 81
30 56 81
29 66 81
30 67 81
33 82 81
32 83 81
31 83 81
31 85 81
29 87 81
29 90 81
28 91 81
27 85 91
28 92 91
31 94 91
31 96 91
32 96 91
34 98 91
36 98 91
40 101 91
42 101 91
43 102 91
42 118 91
36 122 91
33 122 91
33 123 91
32 124 91
31 124 91
31 126 91
28 128 91
27 136 91
29 139 91
30 143 91
34 146 91
33 147 91
30 161 91
31 162 91
30 163 91
31 169 91
32 170 91
31 171 91
32 172 91
35 183 91
36 183 91
37 184 91
37 186 91
44 191 91
45 190 91
49 193 91
55 194 91
56 193 91
57 194 91
58 194 91
59 193 91
60 194 91
61 193 91
62 193 91
65 184 91
66 183 91
67 184 91
69 190 91
73 194 91
79 195 91
82 193 91
83 193 91
88 200 91
90 201 91
105 203 91
111 209 91
132 205 91
134 203 91
147 200 91
151 203 91
162 200 91
163 199 91
164 193 91
165 192 91
171 194 91
173 193 91
189 178 91
189 177 91
192 174 91
191 169 91
199 163 91
200 160 91
203 156 91
206 144 91
205 142 91
202 139 91
202 137 91
203 136 91
207 135 91
211 132 91
212 130 91
214 121 91
216 119 91
215 111 91
213 109 91
180 109 91
177 110 91
176 109 91
176 102 91
177 101 91
178 102 91
196 102 91
197 103 91
198 102 91
212 103 91
214 101 91
215 101 91
216 92 91
215 91 91
211 79 91
207 76 91
202 75 91
201 74 91
206 68 91
201 51 91
197 46 91
192 44 91
191 43 91
191 36 91
172 18 91
165 19 91
164 18 91
163 13 91
156 8 91
149 9 91
146 12 91
143 10 91
123 4 91
122 3 91
110 3 91
103 9 91
100 9 91
99 10 91
98 9 91
87 12 91
84 16 91
84 18 91
83 19 91
80 17 91
74 17 91
67 25 91
66 34 91
65 35 91
64 34 91
62 27 91
52 26 91
51 27 91
38 32 91
34 39 91
30 57 91
31 58 91
30 59 91
32 67 91
33 68 91
32 69 91
33 70 91
33 74 91
29 78 91
28 82 91
27 83 91
3 109 101
4 110 101
1 114 101
1 119 101
2 119 101
6 122 101
9 119 101
10 120 101
10 124 101
15 124 101
15 123 101
18 120 101
31 119 101
32 120 101
31 121 101
30 121 101
30 124 101
54 124 101
55 125 101
50 129 101
34 131 101
32 133 101
31 133 101
30 139 101
31 140 101
30 141 101
31 145 101
35 149 101
33 160 101
32 161 101
33 162 101
32 163 101
32 164 101
33 165 101
32 166 101
32 167 101
33 168 101
32 169 101
34 172 101
33 173 101
35 176 101
37 182 101
40 184 101
40 186 101
41 186 101
43 188 101
44 187 101
47 189 101
56 190 101
57 191 101
59 189 101
60 189 101
66 172 101
67 171 101
68 172 101
72 189 101
74 191 101
74 192 101
79 193 101
80 192 101
83 192 101
88 199 101
90 200 101
97 202 101
98 201 101
103 200 101
107 205 101
109 206 101
111 206 101
115 209 101
124 208 101
128 204 101
129 204 101
131 186 101
132 185 101
144 201 101
144 202 101
154 203 101
156 202 101
159 199 101
169 197 101
182 186 101
182 185 101
189 177 101
189 170 101
194 166 101
195 166 101
197 158 101
200 155 101
200 149 101
207 141 101
208 141 101
213 134 101
218 119 101
219 118 101
218 117 101
218 114 101
215 111 101
197 111 101
196 110 101
196 102 101
197 101 101
216 100 101
218 98 101
213 77 101
208 69 101
208 68 101
204 68 101
200 62 101
196 47 101
189 41 101
189 34 101
184 30 101
183 27 101
176 19 101
175 19 101
164 12 101
159 12 101
155 9 101
145 9 101
132 26 101
131 25 101
129 7 101
128 7 101
123 3 101
117 2 101
116 3 101
114 3 101
110 6 101
108 6 101
104 11 101
94 10 101
93 11 101
87 13 101
87 14 101
85 16 101
85 18 101
83 20 101
74 19 101
68 48 101
67 49 101
66 48 101
62 35 101
60 33 101
60 31 101
59 31 101
57 29 101
56 30 101
47 31 101
46 32 101
45 31 101
45 32 101
44 33 101
43 32 101
39 35 101
39 36 101
36 39 101
33 50 101
32 51 101
33 52 101
32 53 101
32 54 101
33 55 101
32 56 101
35 71 101
31 75 101
30 79 101
31 80 101
30 81 101
31 86 101
36 90 101
50 91 101
53 94 101
55 94 101
56 95 101
55 96 101
30 96 101
30 98 101
31 99 101
30 100 101
19 100 101
15 96 101
10 96 101
10 100 101
9 101 101
6 98 101
2 101 101
1 101 101
34 110 121
31 114 121
31 115 121
35 121 121
35 122 121
31 126 121
39 124 121
41 122 121
43 122 121
52 134 121
52 135 121
54 135 121
57 138 121
57 141 121
63 142 121
64 143 121
57 151 121
55 163 121
58 166 121
58 165 121
59 164 121
60 165 121
61 164 121
61 162 121
62 161 121
63 162 121
68 156 121
69 157 121
69 166 121
74 166 121
77 169 121
69 179 121
69 189 121
72 191 121
72 192 121
75 195 121
84 194 121
86 197 121
86 199 121
94 204 121
105 200 121
110 208 121
117 209 121
118 208 121
128 209 121
129 208 121
131 208 121
134 179 121
135 178 121
136 179 121
145 202 121
146 203 121
147 202 121
168 195 121
170 193 121
171 193 121
171 192 121
174 188 121
174 183 121
175 182 121
179 183 121
184 180 121
184 179 121
192 170 121
192 168 121
193 167 121
194 167 121
194 166 121
201 156 121
202 152 121
207 149 121
207 148 121
213 139 121
215 131 121
214 129 121
209 124 121
210 123 121
220 121 121
222 119 121
222 112 121
219 110 121
210 110 121
208 108 121
176 110 121
175 109 121
168 109 121
167 110 121
165 107 121
166 103 121
167 102 121
177 101 121
178 102 121
206 104 121
209 102 121
220 101 121
222 99 121
222 93 121
219 90 121
210 89 121
209 88 121
209 87 121
215 81 121
210 66 121
206 62 121
206 61 121
204 61 121
201 57 121
201 55 121
195 46 121
194 46 121
181 29 121
179 28 121
175 29 121
174 28 121
173 21 121
157 11 121
145 9 121
139 23 121
137 25 121
136 34 121
135 35 121
134 34 121
131 4 121
125 3 121
124 2 121
123 3 121
118 4 121
115 2 121
111 3 121
105 11 121
101 10 121
99 8 121
89 10 121
85 15 121
85 17 121
84 18 121
83 17 121
76 16 121
75 17 121
74 17 121
74 18 121
70 22 121
69 22 121
71 36 121
77 42 121
74 45 121
73 50 121
74 52 121
75 53 121
74 54 121
69 54 121
69 63 121
68 64 121
63 58 121
62 58 121
60 55 121
59 55 121
58 54 121
57 55 121
56 55 121
55 61 121
56 62 121
57 69 121
64 77 121
63 78 121
57 79 121
55 81 121
55 84 121
54 85 121
52 85 121
52 86 121
46 94 121
46 96 121
44 98 121
41 98 121
38 95 121
32 94 121
32 95 121
33 95 121
35 97 121
35 99 121
31 105 121
47 109 131
48 110 131
46 113 131
47 116 131
46 117 131
47 118 131
48 122 131
51 126 131
52 126 131
60 132 131
60 135 131
62 137 131
65 137 131
68 132 131
69 133 131
69 137 131
81 137 131
82 138 131
81 141 131
80 142 131
81 143 131
81 146 131
83 148 131
83 149 131
82 150 131
79 150 131
75 155 131
76 160 131
75 161 131
76 167 131
78 169 131
75 171 131
75 172 131
70 176 131
69 178 131
70 189 131
75 193 131
76 192 131
80 191 131
81 192 131
81 196 131
90 202 131
98 202 131
104 197 131
106 199 131
106 202 131
109 206 131
120 209 131
121 208 131
129 207 131
130 180 131
131 179 131
132 180 131
135 196 131
137 198 131
137 199 131
138 199 131
143 203 131
162 197 131
179 182 131
179 181 131
185 174 131
185 173 131
184 172 131
185 171 131
186 166 131
185 165 131
188 163 131
192 162 131
192 160 131
195 157 131
199 156 131
212 137 131
213 135 131
215 129 131
211 125 131
211 124 131
212 123 131
218 122 131
219 123 131
222 123 131
223 117 131
221 115 131
220 108 131
219 107 131
176 110 131
175 109 131
168 109 131
167 108 131
167 103 131
168 102 131
177 101 131
178 102 131
220 104 131
221 96 131
223 94 131
222 88 131
216 89 131
215 88 131
211 88 131
210 87 131
215 82 131
214 81 131
212 74 131
203 60 131
203 59 131
202 59 131
198 55 131
196 55 131
193 52 131
193 50 131
192 49 131
187 48 131
185 46 131
186 43 131
185 42 131
184 36 131
167 18 131
162 16 131
157 12 131
144 9 131
143 8 131
136 14 131
136 15 131
132 21 131
132 32 131
131 33 131
130 32 131
129 4 131
116 3 131
115 4 131
108 6 131
106 9 131
105 14 131
104 15 131
98 9 131
84 12 131
81 15 131
81 19 131
80 20 131
75 19 131
74 20 131
72 20 131
69 33 131
70 35 131
75 39 131
75 40 131
77 42 131
75 51 131
76 52 131
75 57 131
77 59 131
77 60 131
82 61 131
83 62 131
81 68 131
80 69 131
81 70 131
83 77 131
87 82 131
86 83 131
72 83 131
73 84 131
85 87 131
86 88 131
86 89 131
85 90 131
68 88 131
67 87 131
67 85 131
65 83 131
62 83 131
60 85 131
60 87 131
49 96 131
48 99 131
46 101 131
64 110 141
59 115 141
59 116 141
65 123 141
66 123 141
72 127 141
89 127 141
90 128 141
89 129 141
85 129 141
79 137 141
81 146 141
80 147 141
76 147 141
71 154 141
72 159 141
75 162 141
71 165 141
69 165 141
67 168 141
66 176 141
67 177 141
67 182 141
72 188 141
73 188 141
75 190 141
80 187 141
81 188 141
81 194 141
84 198 141
97 201 141
100 198 141
101 198 141
105 204 141
120 206 141
121 205 141
125 205 141
127 202 141
130 167 141
131 166 141
132 167 141
132 191 141
141 202 141
150 201 141
155 197 141
155 196 141
171 177 141
173 176 141
189 171 141
193 168 141
195 168 141
214 143 141
220 123 141
219 122 141
220 121 141
221 121 141
220 111 141
221 110 141
221 108 141
176 110 141
175 109 141
169 109 141
167 107 141
168 103 141
169 102 141
177 101 141
178 102 141
221 103 141
220 99 141
221 98 141
216 72 141
198 48 141
198 47 141
196 45 141
196 44 141
191 42 141
189 40 141
172 35 141
157 16 141
156 16 141
151 11 141
140 10 141
140 11 141
136 16 141
135 16 141
135 17 141
132 21 141
132 53 141
131 54 141
130 53 141
126 7 141
112 5 141
111 6 141
106 7 141
101 13 141
98 12 141
96 10 141
85 13 141
81 18 141
81 23 141
80 24 141
74 22 141
67 30 141
66 40 141
67 41 141
68 45 141
70 47 141
74 48 141
75 49 141
71 55 141
71 58 141
76 64 141
80 65 141
81 66 141
79 75 141
80 77 141
86 83 141
93 83 141
95 86 141
95 87 141
101 88 141
102 89 141
101 90 141
89 93 141
86 98 141
86 102 141
88 102 141
89 103 141
89 108 141
88 109 141
86 109 141
84 106 141
83 98 141
78 94 141
71 93 141
69 94 141
63 99 141
63 100 141
59 104 141
64 48 151
71 53 151
68 65 151
69 67 151
73 71 151
78 71 151
79 72 151
78 76 151
79 77 151
79 80 151
91 90 151
108 92 151
109 93 151
108 94 151
104 94 151
102 96 151
101 96 151
98 109 151
97 110 151
98 111 151
100 118 151
98 120 151
90 122 151
80 130 151
79 132 151
79 135 151
78 136 151
79 137 151
79 139 151
78 140 151
74 140 151
69 145 151
71 158 151
67 161 151
66 161 151
66 162 151
64 164 151
63 171 151
64 172 151
65 177 151
71 183 151
71 184 151
78 184 151
80 187 151
80 190 151
90 198 151
96 198 151
100 194 151
101 194 151
106 202 151
113 203 151
114 202 151
117 202 151
123 196 151
123 193 151
126 190 151
129 194 151
129 196 151
147 200 151
164 189 151
165 189 151
170 185 151
172 185 151
172 184 151
192 169 151
193 167 151
194 159 151
206 151 151
206 150 151
209 147 151
207 141 151
208 140 151
210 140 151
215 136 151
213 133 151
213 132 151
220 123 151
222 110 151
221 109 151
197 108 151
196 109 151
176 110 151
175 109 151
169 109 151
167 107 151
167 104 151
169 102 151
177 101 151
178 102 151
220 103 151
222 101 151
218 84 151
213 80 151
214 76 151
215 75 151
214 75 151
211 72 151
208 72 151
207 71 151
208 66 151
209 65 151
203 57 151
197 56 151
194 52 151
191 41 151
151 13 151
135 12 151
129 16 151
127 21 151
126 22 151
124 19 151
123 15 151
116 9 151
110 8 151
107 10 151
105 10 151
104 13 151
101 17 151
100 17 151
95 13 151
91 13 151
89 15 151
87 15 151
81 21 151
80 21 151
80 25 151
78 27 151
71 28 151
65 34 151
63 40 151
63 56 161
64 56 161
66 58 161
66 59 161
64 61 161
66 68 161
69 71 161
69 74 161
79 82 161
79 83 161
83 87 161
106 92 161
107 93 161
107 95 161
106 96 161
89 96 161
89 123 161
88 124 161
82 125 161
75 133 161
74 133 161
70 136 161
69 138 161
69 141 161
64 148 161
66 154 161
62 157 161
65 174 161
73 183 161
74 183 161
79 188 161
79 189 161
91 193 161
92 194 161
97 189 161
98 189 161
101 194 161
101 195 161
102 195 161
106 199 161
119 198 161
123 195 161
124 195 161
126 188 161
127 187 161
128 188 161
130 195 161
135 198 161
136 197 161
144 196 161
148 191 161
149 191 161
158 184 161
171 182 161
179 175 161
180 168 161
183 165 161
190 165 161
191 166 161
199 160 161
200 155 161
199 154 161
199 152 161
198 151 161
199 150 161
200 150 161
200 149 161
201 148 161
204 150 161
209 149 161
209 148 161
216 137 161
220 116 161
217 113 161
217 110 161
214 108 161
176 110 161
175 109 161
166 108 161
165 107 161
165 105 161
166 104 161
168 104 161
168 103 161
169 102 161
177 101 161
178 102 161
206 104 161
207 103 161
213 104 161
216 102 161
217 102 161
217 98 161
220 95 161
214 70 161
208 62 161
206 61 161
202 62 161
201 63 161
200 62 161
200 61 161
199 61 161
198 60 161
199 59 161
200 54 161
199 52 161
192 46 161
182 46 161
180 43 161
179 36 161
171 29 161
167 29 161
166 28 161
165 29 161
158 28 161
142 15 161
134 14 161
132 15 161
128 20 161
128 23 161
127 24 161
126 23 161
125 18 161
120 14 161
110 12 161
109 13 161
105 13 161
98 23 161
93 18 161
80 22 161
76 27 161
73 28 161
64 40 161
62 49 161
70 119 161
75 123 161
80 122 161
84 116 161
85 107 161
84 106 161
83 101 161
81 99 161
81 98 161
74 97 161
73 98 161
72 98 161
72 99 161
69 103 161
69 106 161
68 107 161
63 64 171
62 65 171
62 71 171
72 82 171
88 86 171
90 85 171
91 84 171
92 85 171
92 86 171
95 86 171
99 93 171
98 101 171
142 104 171
143 105 171
143 106 171
142 107 171
121 107 171
121 108 171
120 109 171
99 110 171
98 117 171
99 118 171
97 123 171
95 125 171
92 125 171
92 126 171
91 127 171
83 125 171
82 126 171
73 129 171
66 135 171
66 136 171
62 140 171
64 165 171
67 168 171
72 167 171
74 169 171
73 179 171
74 180 171
74 183 171
84 190 171
91 191 171
96 187 171
98 189 171
99 193 171
101 195 171
112 196 171
113 195 171
124 192 171
126 189 171
126 184 171
127 183 171
132 190 171
150 192 171
151 191 171
161 188 171
168 182 171
167 176 171
168 174 171
169 173 171
179 175 171
181 174 171
186 169 171
186 167 171
188 165 171
192 165 171
200 155 171
200 150 171
199 149 171
200 148 171
206 148 171
210 145 171
210 144 171
214 138 171
220 118 171
219 117 171
218 110 171
217 109 171
197 108 171
196 109 171
176 110 171
175 109 171
163 108 171
162 107 171
162 105 171
163 104 171
168 104 171
168 103 171
169 102 171
177 101 171
178 102 171
202 104 171
203 103 171
213 102 171
214 103 171
216 103 171
219 99 171
220 92 171
219 91 171
213 71 171
209 65 171
207 64 171
200 64 171
199 63 171
200 57 171
199 56 171
199 54 171
191 46 171
188 46 171
181 37 171
173 36 171
172 37 171
170 37 171
169 38 171
168 37 171
168 29 171
160 23 171
137 19 171
137 20 171
136 21 171
132 22 171
128 28 171
127 28 171
126 27 171
125 20 171
101 16 171
98 21 171
98 23 171
97 24 171
95 24 171
92 21 171
79 24 171
74 28 171
73 36 171
74 37 171
74 42 171
72 44 171
66 44 171
66 45 171
63 49 171
63 51 171
62 52 171
66 70 181
74 77 181
74 83 181
75 84 181
85 86 181
86 85 181
91 84 181
92 83 181
93 84 181
94 101 181
122 103 181
123 104 181
123 106 181
121 108 181
94 110 181
93 125 181
94 126 181
94 128 181
93 129 181
90 127 181
79 126 181
78 127 181
75 127 181
75 129 181
73 131 181
73 134 181
74 135 181
67 140 181
67 141 181
65 143 181
66 158 181
67 159 181
72 159 181
73 160 181
72 172 181
84 182 181
87 182 181
88 181 181
90 183 181
92 183 181
95 186 181
98 186 181
99 185 181
102 189 181
102 191 181
103 192 181
119 190 181
123 186 181
123 181 181
124 180 181
132 187 181
146 189 181
147 190 181
148 189 181
156 187 181
161 182 181
163 184 181
164 183 181
168 182 181
170 179 181
170 175 181
169 174 181
170 173 181
170 171 181
171 170 181
175 173 181
176 173 181
193 160 181
193 159 181
200 153 181
199 144 181
200 143 181
204 143 181
205 144 181
211 139 181
217 118 181
218 117 181
218 116 181
211 109 181
196 108 181
195 109 181
176 110 181
175 109 181
157 108 181
156 107 181
156 105 181
157 104 181
168 104 181
168 103 181
169 102 181
177 101 181
178 102 181
206 104 181
207 103 181
211 102 181
218 95 181
217 94 181
211 72 181
206 68 181
200 69 181
199 68 181
200 58 181
184 44 181
182 44 181
180 41 181
179 41 181
177 39 181
174 39 181
172 41 181
171 41 181
170 40 181
170 32 181
167 29 181
163 28 181
162 29 181
161 29 181
155 24 181
144 22 181
143 23 181
130 25 181
124 31 181
123 30 181
123 25 181
116 20 181
107 19 181
106 20 181
103 20 181
100 25 181
90 28 181
86 31 181
78 33 181
72 40 181
73 52 181
72 53 181
67 52 181
66 53 181
66 54 181
65 55 181
70 71 191
74 74 191
76 74 191
77 75 191
76 76 191
76 80 191
78 82 191
91 81 191
93 79 191
94 79 191
96 70 191
97 69 191
98 70 191
98 74 191
99 75 191
98 76 191
98 83 191
94 89 191
94 91 191
95 92 191
93 95 191
92 101 191
128 103 191
129 104 191
129 108 191
128 109 191
92 110 191
95 122 191
94 123 191
99 130 191
98 142 191
97 143 191
95 140 191
94 133 191
90 130 191
80 129 191
78 130 191
76 132 191
76 135 191
77 136 191
70 141 191
71 153 191
75 157 191
73 165 191
74 166 191
74 170 191
90 182 191
104 186 191
106 188 191
114 185 191
115 184 191
115 178 191
116 177 191
117 178 191
122 177 191
123 176 191
125 179 191
126 184 191
147 189 191
162 180 191
163 180 191
167 177 191
166 172 191
167 170 191
168 169 191
176 171 191
178 170 191
196 156 191
196 155 191
199 152 191
199 149 191
200 148 191
199 147 191
199 145 191
198 144 191
199 143 191
203 143 191
208 139 191
208 138 191
211 134 191
212 126 191
211 124 191
210 123 191
211 122 191
215 122 191
216 114 191
215 113 191
215 112 191
214 112 191
212 110 191
191 108 191
190 109 191
176 110 191
175 109 191
148 108 191
146 106 191
146 105 191
148 103 191
177 101 191
178 102 191
204 103 191
205 102 191
212 102 191
216 97 191
215 90 191
211 89 191
210 88 191
212 85 191
209 74 191
203 69 191
199 69 191
198 68 191
200 62 191
199 61 191
199 59 191
193 53 191
193 52 191
192 52 191
175 40 191
172 42 191
168 43 191
167 42 191
166 38 191
167 37 191
167 35 191
146 22 191
127 27 191
126 28 191
125 33 191
123 35 191
120 34 191
119 33 191
118 34 191
116 34 191
115 33 191
115 27 191
112 26 191
110 24 191
106 23 191
102 26 191
89 30 191
74 42 191
73 49 191
74 50 191
75 55 191
71 58 191
71 60 191
70 61 191
77 61 201
79 63 201
77 66 201
79 71 201
83 75 201
89 75 201
102 60 201
103 61 201
103 64 201
105 66 201
104 78 201
105 79 201
105 80 201
97 87 201
96 89 201
94 103 201
118 102 201
119 103 201
163 102 201
177 101 201
178 102 201
207 101 201
210 98 201
211 98 201
212 93 201
211 92 201
211 91 201
207 91 201
206 90 201
206 89 201
209 85 201
206 76 201
202 71 201
193 69 201
192 68 201
192 67 201
196 62 201
189 54 201
189 52 201
175 42 201
170 45 201
169 44 201
167 36 201
152 35 201
151 34 201
151 29 201
150 29 201
145 25 201
138 25 201
138 26 201
134 31 201
122 28 201
110 38 201
109 37 201
109 32 201
105 29 201
103 29 201
93 36 201
93 37 201
89 42 201
85 43 201
78 52 201
78 57 201
77 58 201
80 164 201
86 169 201
88 169 201
95 177 201
95 178 201
100 180 201
104 183 201
109 179 201
109 174 201
110 173 201
116 180 201
117 180 201
121 183 201
126 184 201
133 180 201
134 180 201
138 185 201
138 186 201
147 185 201
151 182 201
150 178 201
152 176 201
153 177 201
162 176 201
163 177 201
164 176 201
166 176 201
168 173 201
169 168 201
170 167 201
175 169 201
186 162 201
187 162 201
187 161 201
189 159 201
190 155 201
195 150 201
196 150 201
196 149 201
192 144 201
193 143 201
201 141 201
208 131 201
209 126 201
206 122 201
206 121 201
207 120 201
211 120 201
212 119 201
211 114 201
206 110 201
178 109 201
177 110 201
141 109 201
119 108 201
118 109 201
94 109 201
94 116 201
96 118 201
96 122 201
105 132 201
104 133 201
105 145 201
103 148 201
103 151 201
102 152 201
90 137 201
82 137 201
78 142 201
78 144 201
77 145 201
94 114 211
97 119 211
97 121 211
104 126 211
107 126 211
109 128 211
111 142 211
112 142 211
114 144 211
109 166 211
112 169 211
111 170 211
111 172 211
126 183 211
134 184 211
135 183 211
140 182 211
141 183 211
146 183 211
151 179 211
155 180 211
156 179 211
165 176 211
188 157 211
188 156 211
190 154 211
190 150 211
183 143 211
184 142 211
196 140 211
204 129 211
202 118 211
201 117 211
202 116 211
201 113 211
200 112 211
191 111 211
189 109 211
146 108 211
126 109 211
125 108 211
115 110 211
113 108 211
95 108 211
94 109 211
95 104 211
119 102 211
120 103 211
153 103 211
189 102 211
191 100 211
194 100 211
195 99 211
196 100 211
199 100 211
202 97 211
202 96 211
201 95 211
203 93 211
202 92 211
203 91 211
204 83 211
195 71 211
184 69 211
183 68 211
190 61 211
189 56 211
184 50 211
181 49 211
160 33 211
151 32 211
147 29 211
127 28 211
112 38 211
112 43 211
110 45 211
114 67 211
113 68 211
112 68 211
109 84 211
108 85 211
104 85 211
96 92 211
96 95 211
95 96 211
96 104 221
118 101 221
119 102 221
164 103 221
193 101 221
200 94 221
201 89 221
198 84 221
196 84 221
195 83 221
196 80 221
184 64 221
182 63 221
178 63 221
176 61 221
176 55 221
178 53 221
178 52 221
171 44 221
170 44 221
159 37 221
147 33 221
146 34 221
136 33 221
127 39 221
126 39 221
123 35 221
120 35 221
115 43 221
115 45 221
117 47 221
118 70 221
119 71 221
116 74 221
115 74 221
115 75 221
102 89 221
101 89 221
99 91 221
98 91 221
95 97 221
96 117 221
99 121 221
100 121 221
110 130 221
110 131 221
116 138 221
117 138 221
119 140 221
117 143 221
116 152 221
117 153 221
115 168 221
120 175 221
120 176 221
123 176 221
126 172 221
135 178 221
165 171 221
173 165 221
174 165 221
174 164 221
178 159 221
176 157 221
176 151 221
178 149 221
183 148 221
185 146 221
186 146 221
186 145 221
193 138 221
196 130 221
195 129 221
196 128 221
198 128 221
199 127 221
201 120 221
200 119 221
200 117 221
192 110 221
142 108 221
115 110 221
112 108 221
96 107 221
96 110 221
95 111 221
98 103 231
119 101 231
121 99 231
123 99 231
125 101 231
142 104 231
143 103 231
176 103 231
186 101 231
193 92 231
193 86 231
190 86 231
188 84 231
188 80 231
176 62 231
169 64 231
168 63 231
169 62 231
170 56 231
169 55 231
169 53 231
156 43 231
148 42 231
146 44 231
145 43 231
145 40 231
144 39 231
134 38 231
131 40 231
127 41 231
127 42 231
125 44 231
124 44 231
124 45 231
119 53 231
116 82 231
115 83 231
108 85 231
102 90 231
102 91 231
98 96 231
99 118 231
113 129 231
114 129 231
115 128 231
116 129 231
119 159 231
125 168 231
125 169 231
126 169 231
131 173 231
137 174 231
138 173 231
143 173 231
145 171 231
145 168 231
146 167 231
148 169 231
157 168 231
166 162 231
166 161 231
170 156 231
169 149 231
168 148 231
169 147 231
177 149 231
179 144 231
188 131 231
188 127 231
189 126 231
193 125 231
191 115 231
185 110 231
144 108 231
121 112 231
118 110 231
98 108 231
104 99 241
105 100 241
119 101 241
121 99 241
124 99 241
128 102 241
140 103 241
141 102 241
161 104 241
166 101 241
167 101 241
167 100 241
171 95 241
178 93 241
179 94 241
182 93 241
182 92 241
180 90 241
181 84 241
180 83 241
179 78 241
174 72 241
166 72 241
164 70 241
167 66 241
166 61 241
160 54 241
159 54 241
154 50 241
149 51 241
145 54 241
133 50 241
132 51 241
128 52 241
120 62 241
117 77 241
111 86 241
110 86 241
103 92 241
103 120 241
104 120 241
113 128 241
114 131 241
118 137 241
123 155 241
128 160 241
134 161 241
135 162 241
136 161 241
144 158 241
145 157 241
150 161 241
155 161 241
164 153 241
164 152 241
167 148 241
167 145 241
164 142 241
164 141 241
165 140 241
175 139 241
181 129 241
180 121 241
182 119 241
181 118 241
172 117 241
166 110 241
150 108 241
149 109 241
144 110 241
143 109 241
134 108 241
133 109 241
125 111 241
123 113 241
118 110 241
104 112 241
104 114 241
103 115 241
125 81 251
126 95 251
130 99 251
133 97 251
138 96 251
142 92 251
143 92 251
150 97 251
160 95 251
168 84 251
168 83 251
162 76 251
152 75 251
151 76 251
147 77 251
145 79 251
144 79 251
143 78 251
144 77 251
144 67 251
140 62 251
137 62 251
134 65 251
133 65 251
133 66 251
124 79 251
124 133 251
136 149 251
141 149 251
144 145 251
143 133 251
144 132 251
145 133 251
159 136 251
160 135 251
162 135 251
168 129 251
167 126 251
160 116 251
149 115 251
144 119 251
142 119 251
139 116 251
136 116 251
134 114 251
133 115 251
130 115 251
129 114 251
125 119 251
125 129 251
124 130 251
