ply
format ascii 1.0
element vertex 1202
property float x
property float y
property float z
element face 0
property list uchar int vertex_index
end_header
263 300 2
267 303 2
273 303 2
273 302 2
277 297 2
274 294 2
272 294 2
270 292 2
267 292 2
263 295 2
211 349 31
228 363 31
225 381 31
226 382 31
227 386 31
235 392 31
271 396 31
272 395 31
305 384 31
337 359 31
337 358 31
362 325 31
364 308 31
363 307 31
362 296 31
363 295 31
360 275 31
351 264 31
350 264 31
344 260 31
322 257 31
321 258 31
296 262 31
295 261 31
276 256 31
269 250 31
269 247 31
268 246 31
272 241 31
273 241 31
287 229 31
295 199 31
294 198 31
290 181 31
285 175 31
284 175 31
271 166 31
270 163 31
265 157 31
262 156 31
258 153 31
252 153 31
251 154 31
250 153 31
228 155 31
225 158 31
224 162 31
219 166 31
206 170 31
202 174 31
201 185 31
203 188 31
202 191 31
204 191 31
205 192 31
200 196 31
201 200 31
200 201 31
207 224 31
223 245 31
224 245 31
229 250 31
229 251 31
228 252 31
227 252 31
227 253 31
214 262 31
214 263 31
196 287 31
194 293 31
35 478 60
37 479 60
51 474 60
81 456 60
106 446 60
112 442 60
114 442 60
143 425 60
147 424 60
164 412 60
164 411 60
165 410 60
166 410 60
166 409 60
170 406 60
170 405 60
173 402 60
174 402 60
174 401 60
178 395 60
181 397 60
183 397 60
184 398 60
185 397 60
196 396 60
197 397 60
273 404 60
274 403 60
318 391 60
353 363 60
353 362 60
375 328 60
378 311 60
377 310 60
370 273 60
363 265 60
362 265 60
345 253 60
320 247 60
317 244 60
316 237 60
317 236 60
329 183 60
328 182 60
321 159 60
298 133 60
297 133 60
288 127 60
240 117 60
239 118 60
186 132 60
175 148 60
174 152 60
163 169 60
161 201 60
162 202 60
180 249 60
188 259 60
186 272 60
183 276 60
179 316 60
180 317 60
185 345 60
184 346 60
188 372 60
180 380 60
180 381 60
183 385 60
181 392 60
173 398 60
133 409 60
111 422 60
95 429 60
36 472 60
35 474 60
35 476 60
34 477 60
10 485 89
12 487 89
25 485 89
56 463 89
158 426 89
191 406 89
224 402 89
225 403 89
277 406 89
278 405 89
321 392 89
332 383 89
332 382 89
349 357 89
360 322 89
373 302 89
375 283 89
374 282 89
373 278 89
364 268 89
329 255 89
326 251 89
345 173 89
344 172 89
337 152 89
314 121 89
313 121 89
271 97 89
239 92 89
238 93 89
195 104 89
156 136 89
156 137 89
149 148 89
145 177 89
146 178 89
169 265 89
175 275 89
174 322 89
175 323 89
178 350 89
177 351 89
177 354 89
169 361 89
39 398 89
27 408 89
27 409 89
24 412 89
22 421 89
23 422 89
24 443 89
23 444 89
10 476 89
185 15 89
189 20 89
190 20 89
198 25 89
198 26 89
202 31 89
203 31 89
210 36 89
227 36 89
233 31 89
233 30 89
243 17 89
244 17 89
247 13 89
247 9 89
240 5 89
189 3 89
188 4 89
185 4 89
185 6 89
184 7 89
155 267 118
175 293 118
186 353 118
195 365 118
204 396 118
211 405 118
219 407 118
221 407 118
307 396 118
315 390 118
316 387 118
318 385 118
319 373 118
317 370 118
312 355 118
313 354 118
314 344 118
335 313 118
338 293 118
337 292 118
333 281 118
322 267 118
321 262 118
341 230 118
345 211 118
350 203 118
352 193 118
351 192 118
340 137 118
316 110 118
315 110 118
300 100 118
239 83 118
238 84 118
193 94 118
157 120 118
156 120 118
156 121 118
143 141 118
136 163 118
170 5 118
176 26 118
182 34 118
182 35 118
183 35 118
197 45 118
214 49 118
215 50 118
216 49 118
241 42 118
267 23 118
271 23 118
298 43 118
325 48 118
326 47 118
340 43 118
345 39 118
354 12 118
353 10 118
348 7 118
198 2 118
197 3 118
182 2 118
181 3 118
170 3 118
169 4 118
131 212 147
134 230 147
140 240 147
146 262 147
169 296 147
170 296 147
193 315 147
197 326 147
212 347 147
213 355 147
212 356 147
210 362 147
207 364 147
207 365 147
197 374 147
197 375 147
193 381 147
186 415 147
187 416 147
191 430 147
198 435 147
214 432 147
224 424 147
224 423 147
236 407 147
244 375 147
243 374 147
243 368 147
282 339 147
290 336 147
303 325 147
306 318 147
309 314 147
312 289 147
311 288 147
309 278 147
310 276 147
330 248 147
336 233 147
346 217 147
349 201 147
348 200 147
352 171 147
350 168 147
342 136 147
337 130 147
336 130 147
312 95 147
310 71 147
311 70 147
313 63 147
348 36 147
348 35 147
352 30 147
355 14 147
354 13 147
354 10 147
353 10 147
350 7 147
243 3 147
236 7 147
233 6 147
231 4 147
212 2 147
211 3 147
175 3 147
174 2 147
173 3 147
162 3 147
161 4 147
162 5 147
177 62 147
176 63 147
164 108 147
153 126 147
151 132 147
144 140 147
141 149 147
134 160 147
131 210 147
130 211 147
111 5 176
112 6 176
115 19 176
128 30 176
130 36 176
162 47 176
167 54 176
158 103 176
146 125 176
128 202 176
129 203 176
143 256 176
174 302 176
175 302 176
183 307 176
236 316 176
237 315 176
277 302 176
308 278 176
308 277 176
334 241 176
343 185 176
342 184 176
343 169 176
342 168 176
344 141 176
343 140 176
332 57 176
333 56 176
345 11 176
341 8 176
243 3 176
242 4 176
234 4 176
233 3 176
232 4 176
203 3 176
202 4 176
172 5 176
171 4 176
116 3 176
115 4 176
111 4 176
171 449 176
177 457 176
191 459 176
192 458 176
204 453 176
207 450 176
208 450 176
208 449 176
215 440 176
217 426 176
216 425 176
214 415 176
215 413 176
223 406 176
224 400 176
223 399 176
219 387 176
215 382 176
213 382 176
211 380 176
190 383 176
170 411 176
167 421 176
108 35 205
111 38 205
111 39 205
112 39 205
122 47 205
144 54 205
145 53 205
146 54 205
165 58 205
169 64 205
162 88 205
157 91 205
155 91 205
153 97 205
143 107 205
141 113 205
112 139 205
109 160 205
110 161 205
111 166 205
116 170 205
116 171 205
120 176 205
132 235 205
142 251 205
147 265 205
156 275 205
157 275 205
189 299 205
245 309 205
246 308 205
280 298 205
305 280 205
305 279 205
347 216 205
349 196 205
348 195 205
346 181 205
342 176 205
325 65 205
326 64 205
326 61 205
332 56 205
336 55 205
340 52 205
342 52 205
365 33 205
366 30 205
368 28 205
369 15 205
368 13 205
366 11 205
366 10 205
312 6 205
312 13 205
311 14 205
310 13 205
242 3 205
241 4 205
202 4 205
202 5 205
228 5 205
229 6 205
228 7 205
226 7 205
223 10 205
216 9 205
217 10 205
223 11 205
226 9 205
231 9 205
233 11 205
233 13 205
232 14 205
202 14 205
202 17 205
201 18 205
163 20 205
162 19 205
152 19 205
134 4 205
106 3 205
102 8 205
157 468 205
163 475 205
176 478 205
177 477 205
188 474 205
195 465 205
192 454 205
186 446 205
189 432 205
198 422 205
199 422 205
205 418 205
209 417 205
211 414 205
211 411 205
201 397 205
190 395 205
189 396 205
178 399 205
165 410 205
165 411 205
156 425 205
151 440 205
85 186 234
95 197 234
118 206 234
123 212 234
133 248 234
167 286 234
168 286 234
189 298 234
248 308 234
249 307 234
297 291 234
312 279 234
312 278 234
345 232 234
350 216 234
349 215 234
349 207 234
368 192 234
368 191 234
374 186 234
375 183 234
379 177 234
382 158 234
381 157 234
379 151 234
343 102 234
339 66 234
340 64 234
348 58 234
365 52 234
371 47 234
371 46 234
379 35 234
381 14 234
380 12 234
374 8 234
323 7 234
314 17 234
315 18 234
328 19 234
329 20 234
328 21 234
266 17 234
265 18 234
239 17 234
238 18 234
202 19 234
201 18 234
200 19 234
193 18 234
192 19 234
150 20 234
149 19 234
146 19 234
135 5 234
133 4 234
117 3 234
109 8 234
108 32 234
109 33 234
114 54 234
113 55 234
105 77 234
99 86 234
88 113 234
84 119 234
78 138 234
141 486 234
148 494 234
149 494 234
151 496 234
164 497 234
167 494 234
168 494 234
169 488 234
168 487 234
161 459 234
162 458 234
166 445 234
180 429 234
181 429 234
193 421 234
194 421 234
194 420 234
196 418 234
195 414 234
193 412 234
193 411 234
192 411 234
188 408 234
167 413 234
154 425 234
153 428 234
140 449 234
137 459 234
217 10 234
223 11 234
226 9 234
231 9 234
232 10 234
234 8 234
235 9 234
235 7 234
226 7 234
223 10 234
216 9 234
248 11 234
249 12 234
258 11 234
258 10 234
260 8 234
272 8 234
273 7 234
259 7 234
259 8 234
257 10 234
252 11 234
251 10 234
248 10 234
247 11 234
83 192 263
94 204 263
95 204 263
100 208 263
122 216 263
126 222 263
131 242 263
138 253 263
140 259 263
154 278 263
154 279 263
155 279 263
196 307 263
251 316 263
252 315 263
289 307 263
321 285 263
321 284 263
340 254 263
348 221 263
358 215 263
372 210 263
383 200 263
383 199 263
386 195 263
390 154 263
389 153 263
366 64 263
360 55 263
360 53 263
359 52 263
363 47 263
364 47 263
370 39 263
372 18 263
371 17 263
371 11 263
367 8 263
323 7 263
314 17 263
315 18 263
331 20 263
332 21 263
331 22 263
236 18 263
235 19 263
151 20 263
139 5 263
123 3 263
118 7 263
117 9 263
112 40 263
97 63 263
76 143 263
77 144 263
74 157 263
116 498 263
118 500 263
118 501 263
119 501 263
121 503 263
127 503 263
131 499 263
146 454 263
171 426 263
170 423 263
169 423 263
167 421 263
166 422 263
156 424 263
134 443 263
134 444 263
118 468 263
114 481 263
217 10 263
223 11 263
226 9 263
231 9 263
232 10 263
234 8 263
235 9 263
235 7 263
226 7 263
223 10 263
216 9 263
248 11 263
249 12 263
258 11 263
258 10 263
260 8 263
272 8 263
273 7 263
259 7 263
259 8 263
257 10 263
252 11 263
251 10 263
248 10 263
247 11 263
80 160 292
79 161 292
87 195 292
98 208 292
99 208 292
117 218 292
123 220 292
127 226 292
132 256 292
139 264 292
140 264 292
149 272 292
149 273 292
174 304 292
175 304 292
182 309 292
265 321 292
266 320 292
298 311 292
320 294 292
320 293 292
338 266 292
340 260 292
345 252 292
347 231 292
346 230 292
348 225 292
349 224 292
368 218 292
383 205 292
383 204 292
388 196 292
394 130 292
387 118 292
385 89 292
383 87 292
376 64 292
365 50 292
364 50 292
358 43 292
363 11 292
357 7 292
347 6 292
346 7 292
323 7 292
314 17 292
315 18 292
322 18 292
324 20 292
324 21 292
323 22 292
216 19 292
215 20 292
158 21 292
151 16 292
150 13 292
145 6 292
143 5 292
127 4 292
123 7 292
118 26 292
119 27 292
118 34 292
108 42 292
108 43 292
103 51 292
99 62 292
97 64 292
79 149 292
217 10 292
223 11 292
226 9 292
231 9 292
232 10 292
234 8 292
235 9 292
235 7 292
226 7 292
223 10 292
216 9 292
248 11 292
249 12 292
258 11 292
258 10 292
260 8 292
272 8 292
273 7 292
259 7 292
259 8 292
257 10 292
252 11 292
251 10 292
248 10 292
247 11 292
98 202 321
118 215 321
126 218 321
130 225 321
140 269 321
149 280 321
150 280 321
202 319 321
252 325 321
253 324 321
293 315 321
315 298 321
338 267 321
348 227 321
358 220 321
370 215 321
379 207 321
379 206 321
383 200 321
391 164 321
390 163 321
386 114 321
387 113 321
389 96 321
388 95 321
387 91 321
380 81 321
374 57 321
367 49 321
367 48 321
366 48 321
354 38 321
353 33 321
354 32 321
355 11 321
352 8 321
336 6 321
335 7 321
317 7 321
316 15 321
314 17 321
317 19 321
317 21 321
316 22 321
284 19 321
272 9 321
272 8 321
273 7 321
219 5 321
218 6 321
210 8 321
196 19 321
174 22 321
173 21 321
160 19 321
150 7 321
150 6 321
133 4 321
130 6 321
128 6 321
123 13 321
123 29 321
124 30 321
114 43 321
113 43 321
106 51 321
92 108 321
93 109 321
94 118 321
93 119 321
87 140 321
100 145 350
99 146 350
102 172 350
101 173 350
105 194 350
116 206 350
117 206 350
127 214 350
132 228 350
138 236 350
142 261 350
150 271 350
154 282 350
203 316 350
245 322 350
246 321 350
294 312 350
307 302 350
308 302 350
308 301 350
314 296 350
314 295 350
325 277 350
325 275 350
328 271 350
335 249 350
357 229 350
357 228 350
359 226 350
364 211 350
379 191 350
382 171 350
381 170 350
380 161 350
381 160 350
383 139 350
382 138 350
374 81 350
375 80 350
371 66 350
350 42 350
349 36 350
350 35 350
350 30 350
351 29 350
350 28 350
349 11 350
346 8 350
324 6 350
323 7 350
307 10 350
306 11 350
305 10 350
275 6 350
274 7 350
259 8 350
258 7 350
226 8 350
225 7 350
216 7 350
215 8 350
210 5 350
185 6 350
184 5 350
163 6 350
162 5 350
137 6 350
131 10 350
120 45 350
111 57 350
105 81 350
106 82 350
102 110 350
103 111 350
98 125 350
134 227 379
149 243 379
157 267 379
171 283 379
172 283 379
204 304 379
263 309 379
264 308 379
302 295 379
314 284 379
314 283 379
320 274 379
327 257 379
355 219 379
372 152 379
371 151 379
360 98 379
361 97 379
362 84 379
361 83 379
356 68 379
340 54 379
339 52 379
343 33 379
342 32 379
340 20 379
331 13 379
270 7 379
264 11 379
259 10 379
258 11 379
252 10 379
251 11 379
244 10 379
243 11 379
235 10 379
234 9 379
232 11 379
231 10 379
224 10 379
218 6 379
190 8 379
179 16 379
142 28 379
135 34 379
134 36 379
133 48 379
114 71 379
115 96 379
114 97 379
110 113 379
144 211 408
148 217 408
153 234 408
177 266 408
196 280 408
258 289 408
259 288 408
291 281 408
310 265 408
310 264 408
323 246 408
326 234 408
341 212 408
347 186 408
346 185 408
347 178 408
346 177 408
350 150 408
349 149 408
345 132 408
341 126 408
341 123 408
340 122 408
341 121 408
343 98 408
342 97 408
332 70 408
325 59 408
320 46 408
303 30 408
303 29 408
281 15 408
229 7 408
228 8 408
202 15 408
192 24 408
192 25 408
184 36 408
182 42 408
173 49 408
153 55 408
147 60 408
147 61 408
144 64 408
143 73 408
144 74 408
142 83 408
137 91 408
137 96 408
136 97 408
137 98 408
138 111 408
132 121 408
130 129 408
157 186 437
171 205 437
176 225 437
213 252 437
248 255 437
249 254 437
285 246 437
294 238 437
294 237 437
298 232 437
298 230 437
311 211 437
311 209 437
319 197 437
322 142 437
321 141 437
319 122 437
320 121 437
315 93 437
308 83 437
306 66 437
307 65 437
304 42 437
294 31 437
293 31 437
280 23 437
236 15 437
235 16 437
203 23 437
194 30 437
194 31 437
185 44 437
182 69 437
183 70 437
184 78 437
183 80 437
170 92 437
161 124 437
162 125 437
165 146 437
155 159 437
153 165 437
187 87 466
223 134 466
224 134 466
229 138 466
242 142 466
243 143 466
244 142 466
257 138 466
295 107 466
295 106 466
306 89 466
308 70 466
307 69 466
303 57 466
293 46 466
292 46 466
277 36 466
232 30 466
231 31 466
207 38 466
189 53 466
184 69 466
208 112 495
216 122 495
217 122 495
229 129 495
257 132 495
258 131 495
273 126 495
282 118 495
282 117 495
288 110 495
292 92 495
291 91 495
285 71 495
274 59 495
273 59 495
265 54 495
243 52 495
242 53 495
218 58 495
215 61 495
214 61 495
214 62 495
204 77 495
201 85 495
