ply
format ascii 1.0
element vertex 2694
property float x
property float y
property float z
element face 0
property list uchar int vertex_index
end_header
62 116 6
64 118 6
68 118 6
68 117 6
67 117 6
64 114 6
62 114 6
76 134 6
77 133 6
78 133 6
78 132 6
77 131 6
73 131 6
57 114 11
63 122 11
64 122 11
66 124 11
76 124 11
78 122 11
79 122 11
79 121 11
80 120 11
65 116 11
57 110 11
56 111 11
70 131 11
76 133 11
77 132 11
78 132 11
78 130 11
75 127 11
71 127 11
70 128 11
52 150 16
57 156 16
58 156 16
60 158 16
62 158 16
63 159 16
64 156 16
63 154 16
52 144 16
51 144 16
55 111 16
59 123 16
62 125 16
62 126 16
65 126 16
69 130 16
76 131 16
82 124 16
83 124 16
88 119 16
88 117 16
87 117 16
86 116 16
85 117 16
77 118 16
76 117 16
60 114 16
55 109 16
54 109 16
49 147 21
56 152 21
56 153 21
63 159 21
74 160 21
75 159 21
76 159 21
76 157 21
68 152 21
68 151 21
65 150 21
58 143 21
58 142 21
57 142 21
56 141 21
55 142 21
49 140 21
49 141 21
48 142 21
57 123 21
63 123 21
69 128 21
81 127 21
90 117 21
90 114 21
82 116 21
81 117 21
80 116 21
57 112 21
55 110 21
54 110 21
54 111 21
53 112 21
27 12 26
28 12 26
28 11 26
29 10 26
28 9 26
28 8 26
27 8 26
27 9 26
26 10 26
45 144 26
55 152 26
56 156 26
60 161 26
65 162 26
70 158 26
81 156 26
83 154 26
83 152 26
82 152 26
76 147 26
71 150 26
64 149 26
62 147 26
60 147 26
56 142 26
56 139 26
54 137 26
45 139 26
44 140 26
54 123 26
55 123 26
56 122 26
57 123 26
63 123 26
65 125 26
74 126 26
75 125 26
76 126 26
80 125 26
81 126 26
84 122 26
85 122 26
90 115 26
90 112 26
86 113 26
84 115 26
52 110 26
52 111 26
51 112 26
16 12 31
16 14 31
19 13 31
26 20 31
29 20 31
31 17 31
31 15 31
32 14 31
36 15 31
38 12 31
38 10 31
37 9 31
33 9 31
32 10 31
31 9 31
21 10 31
19 8 31
17 8 31
15 10 31
43 141 31
44 141 31
54 150 31
55 155 31
60 161 31
62 162 31
68 161 31
72 158 31
73 156 31
73 154 31
74 153 31
82 151 31
83 150 31
82 147 31
81 147 31
78 142 31
76 142 31
75 145 31
69 149 31
63 148 31
58 142 31
56 142 31
54 139 31
54 137 31
46 135 31
44 136 31
43 137 31
42 137 31
47 56 31
51 61 31
62 60 31
70 49 31
72 39 31
70 37 31
70 30 31
63 22 31
57 20 31
56 21 31
54 21 31
46 30 31
44 40 31
50 117 31
54 121 31
54 123 31
71 125 31
72 124 31
80 124 31
88 114 31
88 112 31
87 111 31
86 111 31
82 114 31
50 110 31
49 111 31
14 16 36
17 18 36
22 17 36
24 18 36
26 20 36
29 20 36
31 18 36
35 18 36
36 19 36
39 17 36
40 15 36
39 10 36
36 8 36
25 8 36
14 9 36
14 10 36
13 11 36
39 45 36
44 66 36
49 71 36
59 72 36
60 71 36
64 70 36
67 67 36
67 65 36
72 60 36
77 32 36
76 31 36
74 22 36
65 14 36
56 12 36
55 13 36
51 14 36
44 19 36
43 21 36
39 35 36
40 138 36
53 148 36
53 149 36
59 157 36
61 158 36
69 156 36
73 152 36
80 151 36
82 149 36
82 145 36
78 140 36
78 138 36
77 137 36
76 137 36
76 138 36
70 145 36
67 145 36
66 146 36
65 145 36
61 145 36
55 138 36
55 137 36
49 137 36
44 133 36
40 136 36
49 119 36
56 120 36
60 124 36
72 125 36
73 124 36
76 125 36
78 124 36
82 119 36
83 115 36
84 114 36
83 113 36
80 113 36
79 114 36
78 113 36
56 111 36
48 111 36
47 112 36
47 113 36
46 114 36
15 15 41
18 18 41
23 19 41
25 21 41
28 21 41
32 18 41
33 19 41
36 19 41
39 22 41
35 47 41
36 48 41
41 71 41
46 77 41
60 79 41
61 78 41
63 78 41
75 61 41
79 35 41
74 14 41
73 14 41
67 10 41
51 8 41
45 12 41
42 12 41
39 9 41
35 8 41
34 9 41
23 9 41
15 10 41
15 11 41
14 12 41
39 139 41
45 144 41
48 144 41
55 152 41
57 153 41
82 148 41
81 143 41
76 139 41
74 139 41
70 142 41
63 143 41
62 142 41
58 142 41
56 139 41
51 139 41
44 132 41
41 132 41
38 135 41
45 119 41
53 120 41
57 124 41
66 125 41
67 124 41
69 124 41
69 123 41
71 121 41
78 121 41
81 116 41
81 113 41
77 114 41
76 113 41
75 114 41
74 113 41
57 112 41
44 111 41
43 112 41
17 17 46
21 20 46
28 21 46
29 20 46
35 21 46
36 22 46
35 30 46
28 35 46
26 46 46
27 48 46
35 55 46
41 80 46
48 85 46
56 86 46
57 85 46
60 85 46
70 76 46
76 61 46
77 60 46
81 32 46
78 15 46
74 10 46
73 10 46
70 7 46
51 5 46
46 8 46
38 10 46
37 9 46
19 12 46
17 14 46
41 141 46
41 143 46
42 144 46
41 145 46
42 149 46
40 151 46
37 151 46
37 152 46
41 155 46
48 155 46
49 154 46
52 156 46
55 156 46
66 149 46
80 146 46
81 145 46
80 142 46
77 139 46
58 141 46
56 139 46
47 137 46
41 131 46
39 131 46
35 135 46
41 120 46
44 122 46
45 121 46
51 121 46
55 125 46
66 125 46
69 122 46
76 121 46
80 116 46
80 114 46
77 114 46
76 113 46
75 114 46
47 112 46
44 112 46
42 110 46
40 110 46
19 18 51
26 23 51
32 22 51
34 24 51
34 25 51
31 27 51
27 28 51
23 33 51
21 41 51
22 42 51
24 49 51
34 56 51
40 85 51
46 90 51
55 91 51
56 90 51
61 89 51
67 84 51
67 83 51
72 76 51
78 56 51
79 55 51
83 32 51
86 29 51
86 23 51
83 22 51
82 21 51
80 14 51
74 7 51
53 3 51
43 6 51
37 11 51
21 13 51
20 14 51
20 15 51
19 16 51
35 142 51
38 145 51
38 146 51
35 149 51
34 149 51
34 151 51
40 156 51
44 156 51
46 158 51
57 159 51
59 158 51
62 154 51
61 153 51
62 150 51
66 147 51
76 146 51
78 144 51
79 144 51
78 140 51
76 138 51
57 140 51
55 138 51
46 137 51
40 131 51
36 131 51
33 135 51
38 122 51
40 124 51
48 122 51
52 126 51
63 126 51
64 126 51
68 123 51
74 123 51
78 117 51
78 114 51
66 115 51
65 114 51
54 114 51
44 114 51
42 114 51
39 110 51
37 110 51
22 48 56
34 57 56
35 75 56
38 89 56
43 94 56
53 96 56
54 95 56
58 94 56
67 87 56
68 84 56
73 76 56
79 54 56
81 51 56
83 35 56
89 29 56
90 25 56
91 24 56
102 22 56
106 18 56
107 19 56
109 19 56
109 16 56
101 3 56
91 4 56
84 12 56
81 12 56
72 4 56
50 2 56
41 5 56
33 13 56
22 13 56
20 15 56
20 19 56
24 24 56
23 27 56
21 29 56
19 36 56
31 138 56
32 150 56
36 155 56
38 156 56
40 156 56
44 159 56
55 160 56
56 159 56
66 156 56
67 155 56
68 149 56
71 146 56
75 145 56
77 143 56
77 140 56
74 137 56
56 139 56
55 138 56
55 137 56
43 136 56
38 131 56
35 131 56
30 136 56
35 119 56
36 120 56
35 121 56
35 124 56
36 125 56
46 124 56
49 127 56
56 128 56
57 127 56
72 125 56
77 117 56
76 116 56
76 113 56
75 114 56
66 115 56
65 114 56
65 113 56
54 113 56
44 113 56
38 113 56
36 110 56
34 110 56
20 44 61
29 51 61
31 51 61
35 56 61
35 67 61
34 81 61
37 95 61
44 100 61
62 95 61
71 82 61
77 60 61
84 49 61
85 34 61
93 27 61
105 26 61
106 27 61
111 27 61
113 25 61
113 22 61
109 17 61
107 7 61
101 2 61
86 4 61
82 8 61
78 8 61
71 3 61
56 2 61
46 2 61
40 4 61
34 11 61
33 11 61
31 13 61
28 11 61
21 11 61
19 13 61
20 20 61
22 22 61
22 24 61
19 28 61
19 30 61
18 31 61
32 156 61
54 161 61
59 158 61
66 157 61
69 154 61
68 148 61
75 142 61
74 138 61
72 136 61
56 138 61
55 137 61
55 136 61
44 136 61
40 135 61
37 132 61
31 132 61
31 134 61
28 137 61
33 122 61
32 123 61
32 126 61
33 127 61
44 126 61
48 129 61
65 126 61
66 127 61
71 127 61
72 123 61
75 119 61
75 114 61
66 115 61
65 114 61
65 113 61
54 113 61
44 113 61
36 113 61
34 111 61
34 110 61
32 112 61
18 18 66
20 20 66
17 33 66
18 34 66
19 40 66
28 47 66
32 47 66
36 53 66
33 85 66
36 101 66
40 105 66
46 106 66
47 105 66
51 105 66
63 96 66
63 95 66
69 87 66
75 63 66
80 55 66
81 55 66
86 49 66
88 34 66
95 29 66
106 29 66
108 27 66
108 25 66
109 24 66
108 23 66
109 10 66
105 4 66
89 2 66
86 3 66
81 8 66
80 7 66
76 6 66
71 2 66
56 4 66
55 3 66
41 2 66
35 7 66
34 7 66
34 8 66
32 10 66
21 8 66
19 9 66
18 10 66
18 11 66
17 12 66
26 141 66
27 142 66
26 143 66
27 147 66
26 148 66
26 150 66
31 155 66
31 156 66
54 161 66
59 158 66
63 157 66
67 154 66
68 154 66
68 148 66
73 143 66
72 138 66
70 136 66
56 137 66
55 136 66
47 136 66
45 134 66
49 131 66
64 128 66
65 129 66
69 129 66
70 128 66
74 117 66
75 116 66
73 114 66
66 115 66
65 114 66
54 114 66
44 114 66
34 114 66
30 113 66
29 117 66
30 118 66
29 128 66
30 128 66
31 129 66
31 131 66
30 132 66
29 132 66
28 135 66
26 137 66
17 17 71
19 19 71
17 29 71
18 30 71
19 36 71
22 40 71
23 40 71
26 43 71
33 45 71
38 51 71
39 57 71
38 58 71
32 86 71
31 87 71
35 109 71
38 112 71
37 113 71
28 113 71
27 114 71
28 115 71
27 121 71
28 122 71
26 132 71
27 133 71
27 134 71
23 138 71
24 139 71
24 150 71
22 152 71
21 152 71
21 154 71
22 155 71
51 161 71
52 160 71
62 158 71
67 152 71
67 149 71
71 143 71
69 137 71
62 136 71
61 137 71
59 137 71
57 135 71
58 132 71
59 131 71
68 130 71
69 124 71
71 122 71
73 115 71
72 114 71
66 115 71
65 114 71
54 114 71
52 114 71
51 113 71
67 91 71
73 63 71
74 62 71
75 58 71
79 54 71
83 53 71
87 48 71
88 36 71
94 32 71
104 30 71
106 27 71
105 22 71
107 19 71
108 10 71
107 9 71
107 7 71
103 3 71
90 2 71
88 3 71
81 9 71
72 2 71
52 4 71
39 2 71
37 3 71
32 8 71
19 6 71
16 9 71
19 31 76
24 37 76
25 37 76
42 51 76
43 53 76
40 64 76
33 75 76
29 100 76
30 101 76
29 112 76
25 117 76
24 132 76
21 135 76
22 139 76
20 142 76
20 147 76
22 149 76
22 154 76
17 158 76
19 160 76
32 156 76
40 161 76
61 157 76
66 151 76
66 147 76
69 144 76
67 137 76
63 136 76
61 134 76
65 131 76
67 131 76
69 118 76
70 117 76
69 116 76
58 116 76
57 115 76
67 76 76
66 62 76
72 55 76
73 55 76
76 52 76
83 51 76
88 45 76
89 35 76
91 33 76
100 32 76
102 30 76
105 10 76
104 9 76
103 5 76
101 3 76
92 5 76
86 10 76
86 11 76
83 13 76
80 11 76
80 10 76
74 3 76
68 2 76
65 4 76
51 5 76
50 4 76
38 2 76
30 7 76
27 5 76
18 4 76
17 5 76
16 5 76
16 6 76
15 7 76
19 26 81
27 33 81
28 38 81
36 45 81
40 46 81
45 50 81
46 52 81
43 66 81
32 80 81
28 96 81
29 97 81
28 98 81
27 112 81
26 113 81
24 113 81
23 114 81
23 119 81
21 121 81
18 134 81
19 135 81
17 149 81
20 153 81
19 159 81
16 163 81
16 164 81
18 164 81
23 160 81
24 157 81
26 155 81
32 156 81
35 159 81
36 164 81
38 166 81
41 166 81
52 158 81
61 157 81
63 155 81
65 146 81
67 144 81
65 136 81
63 134 81
66 131 81
67 117 81
66 116 81
61 116 81
59 114 81
64 85 81
61 75 81
53 66 81
54 59 81
59 55 81
71 52 81
75 49 81
85 47 81
88 43 81
89 34 81
91 32 81
98 32 81
100 30 81
103 14 81
106 10 81
105 6 81
103 4 81
102 4 81
99 7 81
98 7 81
96 16 81
95 17 81
87 17 81
86 18 81
85 17 81
83 17 81
75 4 81
74 4 81
72 2 81
62 5 81
61 6 81
60 5 81
48 6 81
43 2 81
30 5 81
29 4 81
17 2 81
16 3 81
15 3 81
15 4 81
14 5 81
14 14 86
21 24 86
22 24 86
27 29 86
29 40 86
37 46 86
42 47 86
49 57 86
51 57 86
55 53 86
70 50 86
76 46 86
84 44 86
88 39 86
89 32 86
91 30 86
96 29 86
97 28 86
95 20 86
91 16 86
86 15 86
85 16 86
83 16 86
72 2 86
66 3 86
64 5 86
48 6 86
41 2 86
30 4 86
28 2 86
15 1 86
14 2 86
13 2 86
13 4 86
12 5 86
15 144 86
17 146 86
16 150 86
15 151 86
17 153 86
26 152 86
27 153 86
29 153 86
33 157 86
36 176 86
39 175 86
43 169 86
45 161 86
48 158 86
50 158 86
51 157 86
56 160 86
63 159 86
63 155 86
62 154 86
63 153 86
63 144 86
65 142 86
64 128 86
65 114 86
61 113 86
60 112 86
62 91 86
61 90 86
59 83 86
50 75 86
49 67 86
46 67 86
30 88 86
26 109 86
23 112 86
23 115 86
19 119 86
18 119 86
16 139 86
14 141 86
12 12 91
17 19 91
17 20 91
18 20 91
20 22 91
24 23 91
26 25 91
28 41 91
39 49 91
41 49 91
46 55 91
46 56 91
49 56 91
54 52 91
70 49 91
78 42 91
86 39 91
88 36 91
89 28 91
92 26 91
94 26 91
95 25 91
96 21 91
95 20 91
94 16 91
88 11 91
82 11 91
81 12 91
73 3 91
71 2 91
64 3 91
60 6 91
35 2 91
32 4 91
30 4 91
26 1 91
15 1 91
12 2 91
12 3 91
11 4 91
12 144 91
15 147 91
15 151 91
18 153 91
27 150 91
29 151 91
33 156 91
32 164 91
37 171 91
34 176 91
34 179 91
35 180 91
37 180 91
40 169 91
43 165 91
44 159 91
47 156 91
50 156 91
51 155 91
54 158 91
54 161 91
56 163 91
63 162 91
63 161 91
62 161 91
59 158 91
59 156 91
61 154 91
63 138 91
61 135 91
63 116 91
62 115 91
62 114 91
61 114 91
59 112 91
59 101 91
56 88 91
48 82 91
47 80 91
46 75 91
45 74 91
44 74 91
29 94 91
25 114 91
22 117 91
17 117 91
17 118 91
16 119 91
17 120 91
15 129 91
13 131 91
14 138 91
15 139 91
12 142 91
15 23 96
16 24 96
23 25 96
25 27 96
28 45 96
43 57 96
44 60 96
45 61 96
46 61 96
50 55 96
68 50 96
78 38 96
80 37 96
84 36 96
88 31 96
88 26 96
95 20 96
93 11 96
88 7 96
77 8 96
70 2 96
48 4 96
37 1 96
35 2 96
32 5 96
29 5 96
24 1 96
14 1 96
11 4 96
12 152 96
17 153 96
24 144 96
27 144 96
37 154 96
32 158 96
31 160 96
32 166 96
33 167 96
39 167 96
41 165 96
41 158 96
38 154 96
41 152 96
55 154 96
56 155 96
55 164 96
57 166 96
59 166 96
60 165 96
58 163 96
58 154 96
60 152 96
61 145 96
60 144 96
61 126 96
58 116 96
56 114 96
56 103 96
53 94 96
45 87 96
44 82 96
43 81 96
42 81 96
28 102 96
25 118 96
22 121 96
15 122 96
13 124 96
14 129 96
12 132 96
13 136 96
14 137 96
13 138 96
11 143 96
11 140 101
10 141 101
14 147 101
11 150 101
10 150 101
10 153 101
14 153 101
16 150 101
15 149 101
20 127 101
19 125 101
16 122 101
12 122 101
11 123 101
11 125 101
16 129 101
16 130 101
10 135 101
14 23 101
16 25 101
21 26 101
24 29 101
29 52 101
42 64 101
42 65 101
44 67 101
44 68 101
45 68 101
52 58 101
54 57 101
65 53 101
69 50 101
69 49 101
75 40 101
76 34 101
79 32 101
84 31 101
87 28 101
88 23 101
93 19 101
94 17 101
94 14 101
95 13 101
94 12 101
93 7 101
88 3 101
82 2 101
76 6 101
73 6 101
68 2 101
52 3 101
51 2 101
38 1 101
36 2 101
34 4 101
33 4 101
33 5 101
30 8 101
28 8 101
20 2 101
13 4 101
12 5 101
9 143 106
12 143 106
14 141 106
14 137 106
9 137 106
8 138 106
10 154 106
10 153 106
11 152 106
9 152 106
8 153 106
18 30 111
24 58 111
25 59 111
27 66 111
39 82 111
40 90 111
41 91 111
61 65 111
61 64 111
69 51 111
75 35 111
76 34 111
75 29 111
76 27 111
79 25 111
83 24 111
86 20 111
86 18 111
93 13 111
94 11 111
94 3 111
93 2 111
76 1 111
70 8 111
67 7 111
61 3 111
51 2 111
50 3 111
40 4 111
31 12 111
31 13 111
27 17 111
21 16 111
18 20 111
27 168 111
29 170 111
33 170 111
35 168 111
35 164 111
34 163 111
28 163 111
27 164 111
31 130 111
35 130 111
35 125 111
32 125 111
32 126 111
31 127 111
33 123 111
35 123 111
34 119 111
32 119 111
47 123 111
48 123 111
49 124 111
48 125 111
47 125 111
48 137 111
47 138 111
49 151 111
50 152 111
54 152 111
55 151 111
54 144 111
55 143 111
55 136 111
57 134 111
55 131 111
54 121 111
47 121 111
22 54 116
28 79 116
36 89 116
39 102 116
41 99 116
41 97 116
52 86 116
62 71 116
68 52 116
69 50 116
74 46 116
76 41 116
79 37 116
80 30 116
83 27 116
85 27 116
88 23 116
87 17 116
93 12 116
94 4 116
91 2 116
78 1 116
76 2 116
74 5 116
74 7 116
70 13 116
68 13 116
59 6 116
48 6 116
39 9 116
35 13 116
34 13 116
34 14 116
25 27 116
22 44 116
26 171 116
28 171 116
29 172 116
30 171 116
32 171 116
33 170 116
32 165 116
27 165 116
26 166 116
48 142 116
49 143 116
50 142 116
53 142 116
54 141 116
55 135 116
50 134 116
48 136 116
49 152 116
50 153 116
52 153 116
53 152 116
53 149 116
49 148 116
48 149 116
49 128 116
52 128 116
53 127 116
53 125 116
54 124 116
52 122 116
50 122 116
50 123 116
49 124 116
21 62 121
28 90 121
35 99 121
37 108 121
38 109 121
45 100 121
46 100 121
53 94 121
54 91 121
61 80 121
67 57 121
68 55 121
70 53 121
73 40 121
82 27 121
83 27 121
86 23 121
86 18 121
90 14 121
91 6 121
88 4 121
77 5 121
73 11 121
71 18 121
69 20 121
68 20 121
61 12 121
59 11 121
52 10 121
51 11 121
38 15 121
26 31 121
21 52 121
25 172 121
25 173 121
29 173 121
30 172 121
30 168 121
29 167 121
25 168 121
25 169 121
24 170 121
48 140 121
49 141 121
52 141 121
53 137 121
52 136 121
49 136 121
48 137 121
49 153 121
51 153 121
51 151 121
50 151 121
49 150 121
20 70 126
21 71 126
25 95 126
36 112 126
36 115 126
37 116 126
38 116 126
38 115 126
45 107 126
46 107 126
55 99 126
57 94 126
59 92 126
65 65 126
66 64 126
68 37 126
64 25 126
59 18 126
57 17 126
51 16 126
50 17 126
38 21 126
25 39 126
21 61 126
20 62 126
24 175 126
26 175 126
28 173 126
28 172 126
26 170 126
25 171 126
24 171 126
24 172 126
23 173 126
80 19 126
81 19 126
81 18 126
82 17 126
83 18 126
84 17 126
84 15 126
83 15 126
78 20 126
20 76 131
24 102 131
34 115 131
35 122 131
36 123 131
37 123 131
44 113 131
49 111 131
59 97 131
65 67 131
64 66 131
65 65 131
65 54 131
65 44 131
59 28 131
58 27 131
58 26 131
48 24 131
47 25 131
39 27 131
24 48 131
20 66 131
25 177 131
25 175 131
24 174 131
24 175 131
23 176 131
20 79 136
20 89 136
24 109 136
35 121 136
36 126 136
37 126 136
43 118 136
48 116 136
56 109 136
62 82 136
63 81 136
63 70 136
63 60 136
58 41 136
53 35 136
45 33 136
44 34 136
40 35 136
30 44 136
30 46 136
28 48 136
28 50 136
23 58 136
20 69 136
19 95 141
24 115 141
33 123 141
33 124 141
36 128 141
37 128 141
41 123 141
48 120 141
56 113 141
61 83 141
61 73 141
56 53 141
53 49 141
53 47 141
48 44 141
38 46 141
33 50 141
33 51 141
23 67 141
19 85 141
19 100 146
21 114 146
34 128 146
34 130 146
36 132 146
38 132 146
38 130 146
43 125 146
49 123 146
58 111 146
60 88 146
59 87 146
53 67 146
52 66 146
51 62 146
44 56 146
38 57 146
22 78 146
19 90 146
67 11 146
68 10 146
68 8 146
67 7 146
66 7 146
77 15 146
78 16 146
82 15 146
83 11 146
84 10 146
80 6 146
78 6 146
77 7 146
91 13 146
93 11 146
94 7 146
93 6 146
89 7 146
89 8 146
88 9 146
19 105 151
22 119 151
34 130 151
35 132 151
35 133 151
36 133 151
39 129 151
41 128 151
48 126 151
52 123 151
52 122 151
56 117 151
59 96 151
57 89 151
46 73 151
38 70 151
37 71 151
33 72 151
21 88 151
19 95 151
67 16 151
68 17 151
75 15 151
76 16 151
81 16 151
83 14 151
92 15 151
95 12 151
95 7 151
85 8 151
84 7 151
83 8 151
82 7 151
71 10 151
70 9 151
66 9 151
19 109 156
20 119 156
27 127 156
28 127 156
34 132 156
34 135 156
35 136 156
36 136 156
38 134 156
38 132 156
43 129 156
48 128 156
51 125 156
52 125 156
52 124 156
57 117 156
59 102 156
58 101 156
57 96 156
48 85 156
47 85 156
39 80 156
32 81 156
27 85 156
27 86 156
20 96 156
20 98 156
19 99 156
32 43 156
39 49 156
42 49 156
49 41 156
51 33 156
52 32 156
54 32 156
51 16 156
49 14 156
49 13 156
43 12 156
42 13 156
36 15 156
30 24 156
30 26 156
29 27 156
59 32 156
60 31 156
63 31 156
65 28 156
66 24 156
62 23 156
60 24 156
59 25 156
66 18 156
67 17 156
86 13 156
87 14 156
91 14 156
93 12 156
93 8 156
85 7 156
84 8 156
67 10 156
67 11 156
66 12 156
15 27 161
16 27 161
17 26 161
18 27 161
18 26 161
17 25 161
14 25 161
20 121 161
24 126 161
25 126 161
33 132 161
34 135 161
35 136 161
36 136 161
39 132 161
51 127 161
56 121 161
58 103 161
57 101 161
49 91 161
33 87 161
32 88 161
30 88 161
20 100 161
18 109 161
26 49 161
37 57 161
44 56 161
57 37 161
58 37 161
59 36 161
60 37 161
69 37 161
71 35 161
72 35 161
72 34 161
75 30 161
73 17 161
78 14 161
89 14 161
91 12 161
91 7 161
90 6 161
71 10 161
71 12 161
66 15 161
61 14 161
52 6 161
47 6 161
46 5 161
45 6 161
37 8 161
30 14 161
30 15 161
26 20 161
23 31 161
5 17 166
8 17 166
8 16 166
6 14 166
5 14 166
13 29 166
20 29 166
21 30 166
21 41 166
25 56 166
38 65 166
44 64 166
49 60 166
49 59 166
53 53 166
57 42 166
60 39 166
73 41 166
74 40 166
76 40 166
80 34 166
75 16 166
78 14 166
89 12 166
90 7 166
89 6 166
89 5 166
73 9 166
72 13 166
71 14 166
68 13 166
60 3 166
47 1 166
46 2 166
34 6 166
21 25 166
18 25 166
16 23 166
14 23 166
13 24 166
19 116 166
20 122 166
33 132 166
34 134 166
34 136 166
35 137 166
36 137 166
41 131 166
49 129 166
55 124 166
58 106 166
57 105 166
56 101 166
51 96 166
51 95 166
50 95 166
46 92 166
33 90 166
21 100 166
20 102 166
18 114 166
4 20 171
5 21 171
8 21 171
10 23 171
11 31 171
18 30 171
20 32 171
19 45 171
20 46 171
25 63 171
38 73 171
46 71 171
53 62 171
60 41 171
62 39 171
79 44 171
81 42 171
82 42 171
84 33 171
83 32 171
79 21 171
78 20 171
79 19 171
88 18 171
90 6 171
89 5 171
87 5 171
86 4 171
85 5 171
72 8 171
64 1 171
49 2 171
48 1 171
34 4 171
21 21 171
13 19 171
8 14 171
6 14 171
5 15 171
5 16 171
4 17 171
20 122 171
24 126 171
24 127 171
25 127 171
33 133 171
34 135 171
34 136 171
35 136 171
36 137 171
37 136 171
38 136 171
38 135 171
42 131 171
51 128 171
58 118 171
58 107 171
57 103 171
49 94 171
36 90 171
33 92 171
31 92 171
22 100 171
18 112 171
2 6 176
3 5 176
5 5 176
2 3 176
1 3 176
4 21 176
5 22 176
10 23 176
12 25 176
12 27 176
14 29 176
19 30 176
20 31 176
19 53 176
20 54 176
25 70 176
36 84 176
20 104 176
19 119 176
23 126 176
24 126 176
34 134 176
34 135 176
35 136 176
37 136 176
41 131 176
52 127 176
58 118 176
58 107 176
56 101 176
49 92 176
49 91 176
48 91 176
43 85 176
43 84 176
52 76 176
53 74 176
59 44 176
64 37 176
67 38 176
79 47 176
84 47 176
88 42 176
87 41 176
87 35 176
90 32 176
92 32 176
93 22 176
92 21 176
90 13 176
92 10 176
92 8 176
93 7 176
92 6 176
92 5 176
87 4 176
86 5 176
84 5 176
81 8 176
76 7 176
69 1 176
51 4 176
50 3 176
38 1 176
33 4 176
33 5 176
22 19 176
17 18 176
8 12 176
7 12 176
4 16 176
0 8 181
2 14 181
6 15 181
10 20 181
10 21 181
13 22 181
17 27 181
18 27 181
20 29 181
19 39 181
20 40 181
19 59 181
20 60 181
25 90 181
19 116 181
20 117 181
21 122 181
24 126 181
25 126 181
34 134 181
34 135 181
35 136 181
38 136 181
41 131 181
47 129 181
56 122 181
57 120 181
59 105 181
58 104 181
54 86 181
55 85 181
55 83 181
57 81 181
59 81 181
59 70 181
59 60 181
59 50 181
60 40 181
69 32 181
70 32 181
72 34 181
72 45 181
72 55 181
72 65 181
72 68 181
73 69 181
72 70 181
72 80 181
75 76 181
78 66 181
77 66 181
76 65 181
78 50 181
79 49 181
81 52 181
81 63 181
83 65 181
85 65 181
86 66 181
88 64 181
90 56 181
89 55 181
89 51 181
91 49 181
95 48 181
97 45 181
96 44 181
98 33 181
97 32 181
93 21 181
89 17 181
84 19 181
82 16 181
80 8 181
75 2 181
73 1 181
69 2 181
69 3 181
67 5 181
58 3 181
56 5 181
39 1 181
37 2 181
24 17 181
20 17 181
4 5 181
3 6 181
1 6 181
93 8 181
96 6 181
96 4 181
93 4 181
92 5 181
92 6 181
91 7 181
4 13 186
14 21 186
14 22 186
21 28 186
19 42 186
21 45 186
20 63 186
22 90 186
21 91 186
20 110 186
22 121 186
25 125 186
26 125 186
34 132 186
34 133 186
36 135 186
36 136 186
37 136 186
37 135 186
42 129 186
44 128 186
50 126 186
58 116 186
59 99 186
58 88 186
59 87 186
59 76 186
59 66 186
59 56 186
59 46 186
58 47 186
57 46 186
57 40 186
70 31 186
71 32 186
71 43 186
71 53 186
71 63 186
71 69 186
72 68 186
73 69 186
71 86 186
72 87 186
73 86 186
74 86 186
74 85 186
79 78 186
80 78 186
80 76 186
85 68 186
87 67 186
92 66 186
100 53 186
101 42 186
100 41 186
97 31 186
92 25 186
90 24 186
86 25 186
85 26 186
83 23 186
84 10 186
78 2 186
76 1 186
72 2 186
69 6 186
56 4 186
54 6 186
53 6 186
50 3 186
41 1 186
39 2 186
26 16 186
20 15 186
16 12 186
4 9 186
15 23 191
17 25 191
21 26 191
22 27 191
20 37 191
21 38 191
21 42 191
25 47 191
20 74 191
20 84 191
20 94 191
20 104 191
22 118 191
29 126 191
30 126 191
36 134 191
38 134 191
39 133 191
40 129 191
42 127 191
50 124 191
58 113 191
60 89 191
60 79 191
60 73 191
59 72 191
60 71 191
60 60 191
60 50 191
60 41 191
59 42 191
57 51 191
56 52 191
55 51 191
53 40 191
54 38 191
60 33 191
83 26 191
87 20 191
85 6 191
79 1 191
78 2 191
69 5 191
69 9 191
68 10 191
67 10 191
63 6 191
43 1 191
27 14 191
16 14 191
14 14 191
13 15 191
78 42 191
78 52 191
78 62 191
79 71 191
84 70 191
96 61 191
100 44 191
99 43 191
98 38 191
94 33 191
92 32 191
89 33 191
88 34 191
87 33 191
87 32 191
78 32 191
18 20 196
22 23 196
24 23 196
25 24 196
24 35 196
26 37 196
26 38 196
28 38 196
29 39 196
30 38 196
36 36 196
42 31 196
48 32 196
51 35 196
51 37 196
44 45 196
43 45 196
41 47 196
31 49 196
24 57 196
20 87 196
20 97 196
23 116 196
29 123 196
30 123 196
36 130 196
36 131 196
39 131 196
40 128 196
46 123 196
50 122 196
57 112 196
60 84 196
57 64 196
56 63 196
57 62 196
60 62 196
60 51 196
60 43 196
59 44 196
56 53 196
54 55 196
51 51 196
53 38 196
58 33 196
85 27 196
88 24 196
90 12 196
89 11 196
88 7 196
83 2 196
62 5 196
61 4 196
47 1 196
45 2 196
36 9 196
22 13 196
20 15 196
19 15 196
19 16 196
18 17 196
84 52 196
87 47 196
88 48 196
87 52 196
84 55 196
84 60 196
86 62 196
90 61 196
92 59 196
93 59 196
93 58 196
95 56 196
96 45 196
93 43 196
90 45 196
89 44 196
89 43 196
84 43 196
21 90 201
24 112 201
30 120 201
31 120 201
37 127 201
37 129 201
38 130 201
39 129 201
39 127 201
44 121 201
47 120 201
52 116 201
52 115 201
56 109 201
59 82 201
54 64 201
50 58 201
49 48 201
48 48 201
41 54 201
32 56 201
28 59 201
28 60 201
23 68 201
21 80 201
23 17 201
29 21 201
29 27 201
32 30 201
45 26 201
46 25 201
47 26 201
56 29 201
61 33 201
87 29 201
90 25 201
92 13 201
91 12 201
90 8 201
85 2 201
64 4 201
51 1 201
45 5 201
28 8 201
23 14 201
24 87 206
23 94 206
24 95 206
29 113 206
37 123 206
37 124 206
40 125 206
41 121 206
45 116 206
46 116 206
55 103 206
57 81 206
56 80 206
53 70 206
50 66 206
49 60 206
50 59 206
50 56 206
49 55 206
47 55 206
40 61 206
33 63 206
25 74 206
23 85 206
28 15 206
34 20 206
35 24 206
50 22 206
52 24 206
54 24 206
63 31 206
64 33 206
64 34 206
67 35 206
68 34 206
79 34 206
87 32 206
91 28 206
93 14 206
92 13 206
90 7 206
85 2 206
69 4 206
68 3 206
56 1 206
53 3 206
42 3 206
30 6 206
27 10 206
28 92 211
32 108 211
37 116 211
37 118 211
38 119 211
40 119 211
44 110 211
50 102 211
52 83 211
49 61 211
47 61 211
40 69 211
35 71 211
29 79 211
29 81 211
28 82 211
32 12 211
38 17 211
38 18 211
41 20 211
49 19 211
50 20 211
54 20 211
64 29 211
64 30 211
66 32 211
66 38 211
77 38 211
87 36 211
92 30 211
94 16 211
93 15 211
91 9 211
86 3 211
84 2 211
72 3 211
71 2 211
61 1 211
60 2 211
45 3 211
35 3 211
34 3 211
31 7 211
37 108 216
39 110 216
39 112 216
40 113 216
46 86 216
47 85 216
51 69 216
50 70 216
45 71 216
36 86 216
36 91 216
35 92 216
37 10 216
41 15 216
50 18 216
56 24 216
60 24 216
66 31 216
67 37 216
66 38 216
67 45 216
84 43 216
93 31 216
94 16 216
93 15 216
93 13 216
86 5 216
85 5 216
83 3 216
68 2 216
55 3 216
54 2 216
43 2 216
38 2 216
36 4 216
39 100 221
41 106 221
42 105 221
43 105 221
45 96 221
59 76 221
59 75 221
61 73 221
61 71 221
64 67 221
65 67 221
65 66 221
85 48 221
85 47 221
92 36 221
94 19 221
93 18 221
91 12 221
80 5 221
71 4 221
70 5 221
46 2 221
41 3 221
42 8 221
44 10 221
44 12 221
49 16 221
50 18 221
51 22 221
54 25 221
62 26 221
65 30 221
66 42 221
63 47 221
62 51 221
45 74 221
39 90 221
38 99 226
39 106 226
42 110 226
44 111 226
47 111 226
50 93 226
81 56 226
81 55 226
90 41 226
93 22 226
92 21 226
90 15 226
83 10 226
68 9 226
64 9 226
58 3 226
52 2 226
51 3 226
48 3 226
46 5 226
57 22 226
57 23 226
61 24 226
63 26 226
64 37 226
63 38 226
59 52 226
41 80 226
38 89 226
42 113 231
46 118 231
51 117 231
53 114 231
49 92 231
50 90 231
58 81 231
59 81 231
70 70 231
88 44 231
91 26 231
90 25 231
88 19 231
83 16 231
79 15 231
78 16 231
65 17 231
63 20 231
61 40 231
55 55 231
47 69 231
41 86 231
39 89 231
38 96 231
37 97 231
43 114 236
49 121 236
51 122 236
53 122 236
54 112 236
53 111 236
48 92 236
43 92 236
39 97 236
51 78 236
52 79 236
57 78 236
75 62 236
85 45 236
87 31 236
86 30 236
86 28 236
82 24 236
72 25 236
64 33 236
52 66 236
51 67 236
51 71 236
50 72 236
45 115 241
47 117 241
47 118 241
50 119 241
51 120 241
51 119 241
52 118 241
53 118 241
54 110 241
52 107 241
48 91 241
45 92 241
44 97 241
42 99 241
42 102 241
41 103 241
61 62 241
63 64 241
67 63 241
76 52 241
79 42 241
78 41 241
78 38 241
77 38 241
76 37 241
75 38 241
71 39 241
64 47 241
61 55 241
44 108 246
47 116 246
49 118 246
55 118 246
55 112 246
53 110 246
50 98 246
49 97 246
46 97 246
45 98 246
43 106 246
47 108 251
47 109 251
51 109 251
53 107 251
52 106 251
52 104 251
50 102 251
51 98 251
50 97 251
48 97 251
47 100 251
48 101 251
47 102 251
47 105 251
46 106 251
50 118 251
53 120 251
56 120 251
55 115 251
54 114 251
51 114 251
49 116 251
50 107 256
51 107 256
52 106 256
52 105 256
49 105 256
