ply
format ascii 1.0
element vertex 2229
property float x
property float y
property float z
element face 0
property list uchar int vertex_index
end_header
32 22 6
32 24 6
33 24 6
37 27 6
56 29 6
70 26 6
73 23 6
73 20 6
65 14 6
52 12 6
51 13 6
34 16 6
31 20 6
23 24 11
30 29 11
32 29 11
35 32 11
32 35 11
34 38 11
44 38 11
53 38 11
62 38 11
71 38 11
72 38 11
72 36 11
69 33 11
69 32 11
71 30 11
79 27 11
82 23 11
82 20 11
78 15 11
77 15 11
72 11 11
72 10 11
77 6 11
77 5 11
78 4 11
71 5 11
71 6 11
70 7 11
38 11 11
37 12 11
27 14 11
25 16 11
24 16 11
23 19 11
22 20 11
42 51 11
43 51 11
52 59 11
56 59 11
57 58 11
56 52 11
48 51 11
46 49 11
46 48 11
42 48 11
17 24 16
19 26 16
19 27 16
22 28 16
26 31 16
23 35 16
23 36 16
25 38 16
35 38 16
44 38 16
53 38 16
70 42 16
71 41 16
80 38 16
79 31 16
85 27 16
86 27 16
86 26 16
88 24 16
86 16 16
85 16 16
81 12 16
83 6 16
85 4 16
82 2 16
38 10 16
22 12 16
17 17 16
17 19 16
16 20 16
33 50 16
43 56 16
44 56 16
51 61 16
54 61 16
55 60 16
53 51 16
52 51 16
48 48 16
34 47 16
33 48 16
39 85 16
48 85 16
50 83 16
51 83 16
51 82 16
53 80 16
54 75 16
55 74 16
54 73 16
54 72 16
47 72 16
43 75 16
43 76 16
40 80 16
40 82 16
39 83 16
45 106 16
49 106 16
52 99 16
53 98 16
52 97 16
47 97 16
44 101 16
13 26 21
14 26 21
19 31 21
17 37 21
31 38 21
40 38 21
57 39 21
60 42 21
60 43 21
61 43 21
65 46 21
78 42 21
84 38 21
86 38 21
85 33 21
84 32 21
92 25 21
91 17 21
86 12 21
86 10 21
89 7 21
89 4 21
79 3 21
78 4 21
76 4 21
68 15 21
52 16 21
51 15 21
41 15 21
38 15 21
36 13 21
36 9 21
26 9 21
19 9 21
12 18 21
25 51 21
33 54 21
45 67 21
44 68 21
44 71 21
42 73 21
40 81 21
36 85 21
32 84 21
33 97 21
34 97 21
35 87 21
37 85 21
38 86 21
51 84 21
54 81 21
54 79 21
58 74 21
57 73 21
55 59 21
49 53 21
50 50 21
47 47 21
37 47 21
24 49 21
24 74 21
27 77 21
28 77 21
30 74 21
30 70 21
29 70 21
27 68 21
26 69 21
24 69 21
27 81 21
28 80 21
28 79 21
27 79 21
33 120 21
34 121 21
31 126 21
31 127 21
32 126 21
36 126 21
38 129 21
37 130 21
36 130 21
36 131 21
32 136 21
31 142 21
32 143 21
32 144 21
33 143 21
33 141 21
41 132 21
43 132 21
43 130 21
44 129 21
46 129 21
47 122 21
46 121 21
47 120 21
47 116 21
41 112 21
36 113 21
34 110 21
34 103 21
33 103 21
31 110 21
43 109 21
49 108 21
54 102 21
55 95 21
54 94 21
45 94 21
41 99 21
52 118 21
56 121 21
57 123 21
57 124 21
58 124 21
57 120 21
58 118 21
59 117 21
62 117 21
62 115 21
51 117 21
9 25 26
14 29 26
15 31 26
13 37 26
27 38 26
36 38 26
45 38 26
51 39 26
57 46 26
58 46 26
60 48 26
76 45 26
83 39 26
90 38 26
89 31 26
95 26 26
96 24 26
95 17 26
90 12 26
92 6 26
89 4 26
82 4 26
82 5 26
80 7 26
79 7 26
78 12 26
75 14 26
75 15 26
74 16 26
64 16 26
55 16 26
46 16 26
30 14 26
29 13 26
29 10 26
28 10 26
26 8 26
19 7 26
18 8 26
16 8 26
9 16 26
9 18 26
8 19 26
21 71 26
22 75 26
29 81 26
32 81 26
33 82 26
32 83 26
35 87 26
35 93 26
36 94 26
37 93 26
39 93 26
40 94 26
41 100 26
40 101 26
43 109 26
38 113 26
37 113 26
35 110 26
35 107 26
34 108 26
34 111 26
29 118 26
28 118 26
27 125 26
28 127 26
30 129 26
26 150 26
25 151 26
25 161 26
25 162 26
26 163 26
29 162 26
34 169 26
34 171 26
28 176 26
27 181 26
28 181 26
29 180 26
31 182 26
29 185 26
28 201 26
29 210 26
28 211 26
29 212 26
29 216 26
30 217 26
28 220 26
24 241 26
23 242 26
24 246 26
30 247 26
36 252 26
37 252 26
38 251 26
38 241 26
36 222 26
37 221 26
37 219 26
40 217 26
40 213 26
39 213 26
38 212 26
35 195 26
36 194 26
36 192 26
37 191 26
38 191 26
41 178 26
40 177 26
36 163 26
35 162 26
34 150 26
35 149 26
39 136 26
44 132 26
46 132 26
47 129 26
50 125 26
49 124 26
50 123 26
55 123 26
55 120 26
56 119 26
58 119 26
58 118 26
59 117 26
65 118 26
66 119 26
66 117 26
63 117 26
62 116 26
62 114 26
65 111 26
65 110 26
64 110 26
64 111 26
59 116 26
51 117 26
49 116 26
46 113 26
46 111 26
48 109 26
50 109 26
54 103 26
53 103 26
52 102 26
54 99 26
56 86 26
58 84 26
58 82 26
62 77 26
62 75 26
60 75 26
58 72 26
57 67 26
56 67 26
55 66 26
54 62 26
47 54 26
47 53 26
49 51 26
52 51 26
50 49 26
50 48 26
36 47 26
35 48 26
23 49 26
21 51 26
23 54 26
23 55 26
29 56 26
31 58 26
31 63 26
30 64 26
22 64 26
21 65 26
21 68 26
20 69 26
57 140 26
63 142 26
64 141 26
65 141 26
66 133 26
65 132 26
65 130 26
64 130 26
60 126 26
59 126 26
56 129 26
56 131 26
55 132 26
67 104 26
66 104 26
7 26 31
12 31 31
12 33 31
10 35 31
10 37 31
11 38 31
21 38 31
30 38 31
39 38 31
45 38 31
49 43 31
49 46 31
46 48 31
36 48 31
27 48 31
20 48 31
18 50 31
18 51 31
22 57 31
23 69 31
22 70 31
24 77 31
29 82 31
31 105 31
32 113 31
31 114 31
31 117 31
22 125 31
24 127 31
24 128 31
29 129 31
31 131 31
31 135 31
32 136 31
31 137 31
31 147 31
31 149 31
30 150 31
31 151 31
34 151 31
36 144 31
37 143 31
43 144 31
44 145 31
45 144 31
57 141 31
58 142 31
62 143 31
63 144 31
64 143 31
66 143 31
66 133 31
66 132 31
62 128 31
61 123 31
62 121 31
65 118 31
67 120 31
69 120 31
70 117 31
64 117 31
62 115 31
63 107 31
65 105 31
66 92 31
65 91 31
65 92 31
64 93 31
63 93 31
62 92 31
62 89 31
63 88 31
64 89 31
65 88 31
65 86 31
63 86 31
58 79 31
56 53 31
57 52 31
69 49 31
77 43 31
78 40 31
79 39 31
89 39 31
93 38 31
92 32 31
99 24 31
97 16 31
94 13 31
94 9 31
90 6 31
84 6 31
82 13 31
78 16 31
68 16 31
59 16 31
42 15 31
33 15 31
25 15 31
23 12 31
23 8 31
20 6 31
9 4 31
9 6 31
11 8 31
11 11 31
6 16 31
6 18 31
5 19 31
21 208 31
22 213 31
21 214 31
25 238 31
24 239 31
24 241 31
22 243 31
22 246 31
24 248 31
33 249 31
36 253 31
36 254 31
38 254 31
36 252 31
36 251 31
41 247 31
38 242 31
41 222 31
44 219 31
46 204 31
47 203 31
46 202 31
47 189 31
45 186 31
41 173 31
35 164 31
35 161 31
28 161 31
24 182 31
23 183 31
21 199 31
4 25 36
9 30 36
8 37 36
31 39 36
40 39 36
42 39 36
44 42 36
44 46 36
43 47 36
33 47 36
32 47 36
31 48 36
30 47 36
20 47 36
16 48 36
16 51 36
20 56 36
22 68 36
21 69 36
23 80 36
25 82 36
27 97 36
26 98 36
27 117 36
26 119 36
18 125 36
18 128 36
21 131 36
24 131 36
34 145 36
34 146 36
39 148 36
47 155 36
49 153 36
67 150 36
71 147 36
73 134 36
72 133 36
72 131 36
68 125 36
71 121 36
72 121 36
73 120 36
73 118 36
68 114 36
67 109 36
68 108 36
66 90 36
66 81 36
66 72 36
66 63 36
66 54 36
68 41 36
70 39 36
80 39 36
89 39 36
96 38 36
95 33 36
94 32 36
101 24 36
99 15 36
94 9 36
92 8 36
86 8 36
85 14 36
83 16 36
73 16 36
64 16 36
45 15 36
36 15 36
27 15 36
21 14 36
19 11 36
18 5 36
15 3 36
6 2 36
6 5 36
9 9 36
4 16 36
4 18 36
3 19 36
21 212 36
20 213 36
20 220 36
24 224 36
24 226 36
25 226 36
27 229 36
39 226 36
39 225 36
46 215 36
50 197 36
51 196 36
53 189 36
51 186 36
51 185 36
52 184 36
53 184 36
51 169 36
46 168 36
45 169 36
44 169 36
42 167 36
33 166 36
31 168 36
30 172 36
28 174 36
24 187 36
23 188 36
20 199 36
25 249 36
26 250 36
30 250 36
34 254 36
39 254 36
39 253 36
42 250 36
43 250 36
42 247 36
27 245 36
25 246 36
24 247 36
2 24 41
8 31 41
6 37 41
31 39 41
36 39 41
39 42 41
39 46 41
38 47 41
28 47 41
19 47 41
16 47 41
15 50 41
20 57 41
20 67 41
20 70 41
18 72 41
22 97 41
23 98 41
23 108 41
23 117 41
23 123 41
21 125 41
20 125 41
20 129 41
21 129 41
24 132 41
25 140 41
27 142 41
27 144 41
31 149 41
31 151 41
33 153 41
34 158 41
33 159 41
29 173 41
28 174 41
24 189 41
23 190 41
20 203 41
19 204 41
20 205 41
22 221 41
23 222 41
30 223 41
31 222 41
39 222 41
41 220 41
42 220 41
47 207 41
50 203 41
52 203 41
53 202 41
51 191 41
52 190 41
58 174 41
70 164 41
69 163 41
69 161 41
68 161 41
67 160 41
67 157 41
76 150 41
80 133 41
76 127 41
76 117 41
76 108 41
76 99 41
76 90 41
76 81 41
76 72 41
76 63 41
76 54 41
76 45 41
76 40 41
77 39 41
87 39 41
97 38 41
97 31 41
102 25 41
101 16 41
98 13 41
98 12 41
97 12 41
95 10 41
89 9 41
88 13 41
85 16 41
75 16 41
66 16 41
48 15 41
39 15 41
30 15 41
21 15 41
20 15 41
17 12 41
15 4 41
12 2 41
5 1 41
5 3 41
4 4 41
7 9 41
6 12 41
2 17 41
28 251 41
29 252 41
39 252 41
43 252 41
44 251 41
43 250 41
43 249 41
33 249 41
28 249 41
2 26 46
7 31 46
5 36 46
7 38 46
17 38 46
26 38 46
35 38 46
38 39 46
40 41 46
43 41 46
45 39 46
55 39 46
64 39 46
72 38 46
73 39 46
83 39 46
92 39 46
97 39 46
98 38 46
98 31 46
103 26 46
104 21 46
103 20 46
101 14 46
97 11 46
90 10 46
90 13 46
87 16 46
77 16 46
68 16 46
50 15 46
41 15 46
32 15 46
23 15 46
17 14 46
15 12 46
13 3 46
12 2 46
4 1 46
4 3 46
3 4 46
5 7 46
5 12 46
1 17 46
20 68 46
19 69 46
18 85 46
17 92 46
18 93 46
17 94 46
17 104 46
20 120 46
21 121 46
20 122 46
21 123 46
24 139 46
23 140 46
27 166 46
23 189 46
22 190 46
21 203 46
20 204 46
21 205 46
24 217 46
25 218 46
32 218 46
32 217 46
44 209 46
45 209 46
48 205 46
53 205 46
55 203 46
67 204 46
68 203 46
69 203 46
70 193 46
69 192 46
69 190 46
68 189 46
62 189 46
60 191 46
56 192 46
55 193 46
54 192 46
55 184 46
69 167 46
70 167 46
73 163 46
73 161 46
72 160 46
82 147 46
84 137 46
83 136 46
80 126 46
77 123 46
78 115 46
75 113 46
71 91 46
70 90 46
68 67 46
67 68 46
49 53 46
47 53 46
40 44 46
40 47 46
39 48 46
17 49 46
16 49 46
31 254 46
43 255 46
45 253 46
42 251 46
32 251 46
31 251 46
29 253 46
0 23 51
1 25 51
6 31 51
5 37 51
19 38 51
28 38 51
37 38 51
46 38 51
55 38 51
64 38 51
73 38 51
92 39 51
98 39 51
99 38 51
98 32 51
104 24 51
103 16 51
96 11 51
93 11 51
92 10 51
90 12 51
90 14 51
88 16 51
78 16 51
69 16 51
55 15 51
54 16 51
37 15 51
28 15 51
19 15 51
17 15 51
14 11 51
13 4 51
11 2 51
4 1 51
3 2 51
5 11 51
1 16 51
15 104 51
15 113 51
18 128 51
20 130 51
23 140 51
22 141 51
25 173 51
24 174 51
20 200 51
21 201 51
21 204 51
26 209 51
42 210 51
51 210 51
57 209 51
58 210 51
69 209 51
71 207 51
70 196 51
71 195 51
72 186 51
70 184 51
66 183 51
65 184 51
59 184 51
58 183 51
59 179 51
68 168 51
69 168 51
74 164 51
74 160 51
82 154 51
82 153 51
85 149 51
86 137 51
85 136 51
84 128 51
79 121 51
80 114 51
79 114 51
74 107 51
70 92 51
69 91 51
67 65 51
69 59 51
68 60 51
67 60 51
67 62 51
66 63 51
60 59 51
58 59 51
56 57 51
26 53 51
25 52 51
25 51 51
16 50 51
20 69 51
19 70 51
15 95 51
37 253 51
43 253 51
43 251 51
33 251 51
29 251 51
28 252 51
0 22 56
1 23 56
1 25 56
6 31 56
5 37 56
19 38 56
28 38 56
37 38 56
46 38 56
55 38 56
64 38 56
73 38 56
92 39 56
100 38 56
100 36 56
98 34 56
98 32 56
104 24 56
103 16 56
98 12 56
92 11 56
90 13 56
90 15 56
89 16 56
79 16 56
70 16 56
57 15 56
56 16 56
41 15 56
32 15 56
23 15 56
17 15 56
14 11 56
13 5 56
7 3 56
6 4 56
3 4 56
5 7 56
5 11 56
1 16 56
13 55 56
14 55 56
19 59 56
20 71 56
19 72 56
15 99 56
14 100 56
13 113 56
14 114 56
17 135 56
21 140 56
21 150 56
23 171 56
20 195 56
21 201 56
26 205 56
31 205 56
47 217 56
62 218 56
66 217 56
70 214 56
71 212 56
73 198 56
72 196 56
71 195 56
73 192 56
74 187 56
73 186 56
73 184 56
70 181 56
67 181 56
66 180 56
65 181 56
62 181 56
60 179 56
65 172 56
66 172 56
67 169 56
71 164 56
71 162 56
83 154 56
85 153 56
86 153 56
86 143 56
87 133 56
86 132 56
84 125 56
81 121 56
82 114 56
81 113 56
79 113 56
73 103 56
73 102 56
69 96 56
66 73 56
68 63 56
66 60 56
66 57 56
65 56 56
55 56 56
48 55 56
42 50 56
27 49 56
18 49 56
17 48 56
16 49 56
15 48 56
14 48 56
13 49 56
2 26 61
7 31 61
5 37 61
19 38 61
28 38 61
37 38 61
46 38 61
55 38 61
64 38 61
73 38 61
91 39 61
99 38 61
98 37 61
98 31 61
104 24 61
102 15 61
97 12 61
92 11 61
91 12 61
90 12 61
90 14 61
88 16 61
78 16 61
69 16 61
51 15 61
42 15 61
33 15 61
24 15 61
17 15 61
15 12 61
14 7 61
13 6 61
5 6 61
4 13 61
1 17 61
14 58 61
16 60 61
18 77 61
17 78 61
16 88 61
17 89 61
16 90 61
14 118 61
18 138 61
20 140 61
22 171 61
20 187 61
19 188 61
20 189 61
21 199 61
25 202 61
29 202 61
32 205 61
34 213 61
42 219 61
61 223 61
62 222 61
67 221 61
72 216 61
74 206 61
76 204 61
73 191 61
74 190 61
74 184 61
70 180 61
63 179 61
62 178 61
62 176 61
71 164 61
71 162 61
75 159 61
79 158 61
82 155 61
88 155 61
89 143 61
88 142 61
85 125 61
82 121 61
82 113 61
77 110 61
77 109 61
66 94 61
64 79 61
65 78 61
66 78 61
66 75 61
68 73 61
69 73 61
69 67 61
67 67 61
66 66 61
64 57 61
63 56 61
53 56 61
38 52 61
36 51 61
34 49 61
34 48 61
30 47 61
29 48 61
22 49 61
20 51 61
13 51 61
28 253 61
29 254 61
41 256 61
42 255 61
44 255 61
46 253 61
46 243 61
44 241 61
33 240 61
32 241 61
31 241 61
31 242 61
28 246 61
2 24 66
7 31 66
6 37 66
20 38 66
27 38 66
29 41 66
29 48 66
24 52 66
14 51 66
18 74 66
15 103 66
15 112 66
15 121 66
19 139 66
20 140 66
20 150 66
22 168 66
21 169 66
19 193 66
20 194 66
20 197 66
23 200 66
28 200 66
31 204 66
34 216 66
43 223 66
43 225 66
44 226 66
42 229 66
41 234 66
39 236 66
39 238 66
38 239 66
32 240 66
28 246 66
28 249 66
27 250 66
28 251 66
28 253 66
29 254 66
44 256 66
47 253 66
46 238 66
45 237 66
46 236 66
47 227 66
49 225 66
59 225 66
67 223 66
71 220 66
75 193 66
74 192 66
75 191 66
74 184 66
68 180 66
64 179 66
62 176 66
69 169 66
69 167 66
74 160 66
79 158 66
82 155 66
87 154 66
88 153 66
87 149 66
88 148 66
87 139 66
88 138 66
86 126 66
83 122 66
82 113 66
80 113 66
66 97 66
66 92 66
67 91 66
72 90 66
73 89 66
69 72 66
66 72 66
64 69 66
61 56 66
60 56 66
55 60 66
51 59 66
44 54 66
40 54 66
39 53 66
39 52 66
38 52 66
37 51 66
39 40 66
40 39 66
50 39 66
59 39 66
68 39 66
72 38 66
73 39 66
83 39 66
92 39 66
96 39 66
97 38 66
97 31 66
103 24 66
101 15 66
99 13 66
90 11 66
86 16 66
76 16 66
67 16 66
49 15 66
40 15 66
31 15 66
22 15 66
18 14 66
16 12 66
15 8 66
13 8 66
12 7 66
11 8 66
7 9 66
7 10 66
2 17 66
2 19 66
1 20 66
4 25 71
9 31 71
8 37 71
22 38 71
29 38 71
30 39 71
31 53 71
30 55 71
29 56 71
22 56 71
19 52 71
17 52 71
17 54 71
19 54 71
20 55 71
20 58 71
19 59 71
20 60 71
20 66 71
21 67 71
20 68 71
16 97 71
15 98 71
14 114 71
15 115 71
19 136 71
20 137 71
21 141 71
20 142 71
22 169 71
19 192 71
20 193 71
21 199 71
24 201 71
28 201 71
31 205 71
34 216 71
47 225 71
57 225 71
66 224 71
70 221 71
70 220 71
72 218 71
73 203 71
73 194 71
72 188 71
66 182 71
65 178 71
63 176 71
63 175 71
74 163 71
75 163 71
78 159 71
79 159 71
81 157 71
82 157 71
82 156 71
84 154 71
87 130 71
85 127 71
85 125 71
82 121 71
82 114 71
81 114 71
80 113 71
80 112 71
77 111 71
67 97 71
63 79 71
64 78 71
65 78 71
63 72 71
64 71 71
66 73 71
67 72 71
66 72 71
61 65 71
61 64 71
58 63 71
56 65 71
53 64 71
51 62 71
49 62 71
44 55 71
46 40 71
47 39 71
57 39 71
66 39 71
72 38 71
73 39 71
83 39 71
92 39 71
96 38 71
95 31 71
100 27 71
101 25 71
100 16 71
96 12 71
87 10 71
87 12 71
82 16 71
72 16 71
63 16 71
48 15 71
39 15 71
30 15 71
21 15 71
17 10 71
17 9 71
9 10 71
3 18 71
29 249 71
35 253 71
41 254 71
42 253 71
44 253 71
44 252 71
46 250 71
46 244 71
44 242 71
31 244 71
29 246 71
68 80 71
70 82 71
72 93 71
74 93 71
75 94 71
75 97 71
74 98 71
76 101 71
77 101 71
78 102 71
74 85 71
71 82 71
71 78 71
69 76 71
69 75 71
67 75 71
5 23 76
11 30 76
10 37 76
24 38 76
33 38 76
34 39 76
37 56 76
36 58 76
34 60 76
27 59 76
23 56 76
21 56 76
19 54 76
19 52 76
17 52 76
17 53 76
23 60 76
23 66 76
24 67 76
23 68 76
19 97 76
18 98 76
16 120 76
20 137 76
21 138 76
21 148 76
24 168 76
23 169 76
19 194 76
20 195 76
21 200 76
24 203 76
30 204 76
32 207 76
34 213 76
48 222 76
59 224 76
60 223 76
66 222 76
72 214 76
70 202 76
58 184 76
59 183 76
59 181 76
61 179 76
62 179 76
63 172 76
72 164 76
73 164 76
75 158 76
84 148 76
86 135 76
85 134 76
83 125 76
80 122 76
80 115 76
79 114 76
75 113 76
65 99 76
61 82 76
60 81 76
58 67 76
57 67 76
57 69 76
55 71 76
54 71 76
47 62 76
46 54 76
47 53 76
47 49 76
50 47 76
50 46 76
56 39 76
66 39 76
72 38 76
73 39 76
83 39 76
94 38 76
94 32 76
93 31 76
98 27 76
99 25 76
98 16 76
96 14 76
96 13 76
95 13 76
91 10 76
85 9 76
84 10 76
84 12 76
79 16 76
69 16 76
47 15 76
38 15 76
29 15 76
24 15 76
21 11 76
21 10 76
9 12 76
5 18 76
29 253 76
31 251 76
45 250 76
44 249 76
34 249 76
31 249 76
28 252 76
8 24 81
15 31 81
13 34 81
13 37 81
28 38 81
37 38 81
38 38 81
40 41 81
41 45 81
44 48 81
51 49 81
53 48 81
58 44 81
59 41 81
61 39 81
72 38 81
73 39 81
83 39 81
92 38 81
92 36 81
90 34 81
90 31 81
95 27 81
95 26 81
97 24 81
95 15 81
90 11 81
90 10 81
87 8 81
83 7 81
81 8 81
80 9 81
80 11 81
77 15 81
60 16 81
59 15 81
49 15 81
40 15 81
31 15 81
29 15 81
25 11 81
25 10 81
11 13 81
8 17 81
18 54 81
21 58 81
22 58 81
24 60 81
25 75 81
24 76 81
24 86 81
20 116 81
19 117 81
23 140 81
22 141 81
25 167 81
21 189 81
20 190 81
23 206 81
31 212 81
34 212 81
37 215 81
52 219 81
53 220 81
62 219 81
66 215 81
67 209 81
66 208 81
65 204 81
55 191 81
59 172 81
62 168 81
63 168 81
66 165 81
72 163 81
74 161 81
74 155 81
79 151 81
79 150 81
82 146 81
83 133 81
82 132 81
81 127 81
77 122 81
76 115 81
73 113 81
71 113 81
65 105 81
61 90 81
60 89 81
57 72 81
56 73 81
57 86 81
56 87 81
55 87 81
53 84 81
53 80 81
54 79 81
51 77 81
50 71 81
49 71 81
45 67 81
30 63 81
22 57 81
22 56 81
21 56 81
18 53 81
17 53 81
30 255 81
43 253 81
43 251 81
33 251 81
30 252 81
29 253 81
12 24 86
19 31 86
18 36 86
20 38 86
30 38 86
39 38 86
43 38 86
49 46 86
51 47 86
61 46 86
66 39 86
72 38 86
73 39 86
83 39 86
87 38 86
86 31 86
93 25 86
94 21 86
93 20 86
92 16 86
88 12 86
88 9 86
84 6 86
77 5 86
70 15 86
60 15 86
51 15 86
42 15 86
36 15 86
32 12 86
32 11 86
31 10 86
15 13 86
12 16 86
12 18 86
11 19 86
20 58 86
20 60 86
25 68 86
26 78 86
25 79 86
25 89 86
24 105 86
24 114 86
24 123 86
25 138 86
24 139 86
28 155 86
29 156 86
25 178 86
24 179 86
20 204 86
21 205 86
22 214 86
27 220 86
45 217 86
45 216 86
53 211 86
54 211 86
52 195 86
53 194 86
57 175 86
58 174 86
57 170 86
56 169 86
57 168 86
58 162 86
61 160 86
62 157 86
72 151 86
73 151 86
77 148 86
79 141 86
80 140 86
79 139 86
77 128 86
72 121 86
73 120 86
73 117 86
72 116 86
70 116 86
66 113 86
62 101 86
61 99 86
59 97 86
59 95 86
57 95 86
56 103 86
55 104 86
53 101 86
49 86 86
48 85 86
43 70 86
40 67 86
38 67 86
23 56 86
20 56 86
19 55 86
18 56 86
31 251 86
31 250 86
29 250 86
28 251 86
43 251 86
43 249 86
40 249 86
40 250 86
39 251 86
16 24 91
24 31 91
23 36 91
24 37 91
24 38 91
34 38 91
43 38 91
47 38 91
52 44 91
54 45 91
67 43 91
69 41 91
69 39 91
70 38 91
74 39 91
75 38 91
76 39 91
81 38 91
82 37 91
81 33 91
80 32 91
85 28 91
86 28 91
86 27 91
89 24 91
87 15 91
86 15 91
83 12 91
83 9 91
85 7 91
84 6 91
84 5 91
73 3 91
72 4 91
66 5 91
60 9 91
60 10 91
57 13 91
48 13 91
45 8 91
22 12 91
20 13 91
16 17 91
20 205 91
21 217 91
27 222 91
28 224 91
28 225 91
33 226 91
36 224 91
44 222 91
47 219 91
51 187 91
53 166 91
52 165 91
52 163 91
50 161 91
50 156 91
53 153 91
66 149 91
68 148 91
70 146 91
71 146 91
74 139 91
73 138 91
71 129 91
67 125 91
68 120 91
67 119 91
67 117 91
59 106 91
55 107 91
54 106 91
52 106 91
50 104 91
49 96 91
48 96 91
47 95 91
48 94 91
47 93 91
45 79 91
47 77 91
46 76 91
44 69 91
34 63 91
33 63 91
28 59 91
28 62 91
31 62 91
32 63 91
31 67 91
38 78 91
36 86 91
30 95 91
26 121 91
27 122 91
28 134 91
27 135 91
28 144 91
32 150 91
33 150 91
36 153 91
37 160 91
28 172 91
24 186 91
23 187 91
19 203 91
25 249 91
30 250 91
32 252 91
32 253 91
35 254 91
38 252 91
39 252 91
39 251 91
43 248 91
43 246 91
28 245 91
26 247 91
25 247 91
21 202 96
22 210 96
21 211 96
21 214 96
25 219 96
27 238 96
26 240 96
24 242 96
24 248 96
28 249 96
29 248 96
33 248 96
37 253 96
39 253 96
39 250 96
41 248 96
42 248 96
43 241 96
40 239 96
44 221 96
45 219 96
46 218 96
47 218 96
51 190 96
50 189 96
51 171 96
50 170 96
49 165 96
48 164 96
45 164 96
45 165 96
42 167 96
37 167 96
34 164 96
34 163 96
31 164 96
31 165 96
25 174 96
20 200 96
22 24 96
32 31 96
31 34 96
29 36 96
30 36 96
32 38 96
42 38 96
51 38 96
56 42 96
61 42 96
64 39 96
75 38 96
75 35 96
74 35 96
73 34 96
73 31 96
83 24 96
84 20 96
83 18 96
74 11 96
78 6 96
79 6 96
80 5 96
79 2 96
69 2 96
47 6 96
46 7 96
31 11 96
30 12 96
26 13 96
22 17 96
22 19 96
21 20 96
28 140 96
28 148 96
30 150 96
31 150 96
32 149 96
34 140 96
36 138 96
44 144 96
44 145 96
45 145 96
47 147 96
47 149 96
58 147 96
62 144 96
63 142 96
64 136 96
62 133 96
61 128 96
62 127 96
62 118 96
60 118 96
56 113 96
56 111 96
50 106 96
43 104 96
42 105 96
40 105 96
40 106 96
36 110 96
34 118 96
33 119 96
32 119 96
28 131 96
34 63 96
34 62 96
32 62 96
36 66 96
38 66 96
40 68 96
40 71 96
43 74 96
48 74 96
47 73 96
47 70 96
43 66 96
43 65 96
42 66 96
39 66 96
38 65 96
38 64 96
36 64 96
23 201 101
26 203 101
24 205 101
24 211 101
26 211 101
28 214 101
27 228 101
24 246 101
39 250 101
41 243 101
46 237 101
46 232 101
44 232 101
43 231 101
43 226 101
45 224 101
46 224 101
46 223 101
48 221 101
47 220 101
49 208 101
48 208 101
47 207 101
48 201 101
53 195 101
54 195 101
52 184 101
53 183 101
55 168 101
57 166 101
57 161 101
45 160 101
45 170 101
44 178 101
43 179 101
41 177 101
41 176 101
40 176 101
37 172 101
36 172 101
35 171 101
34 166 101
31 163 101
29 143 101
31 140 101
31 137 101
40 129 101
42 129 101
45 133 101
47 149 101
58 147 101
59 144 101
57 141 101
58 126 101
58 124 101
57 123 101
56 124 101
54 122 101
54 120 101
52 120 101
51 121 101
48 119 101
44 122 101
40 122 101
39 121 101
38 122 101
31 123 101
30 124 101
31 125 101
31 127 101
30 128 101
31 128 101
32 129 101
31 130 101
28 153 101
29 154 101
32 169 101
33 169 101
34 170 101
34 173 101
27 178 101
27 179 101
25 181 101
23 197 101
22 198 101
30 23 101
35 27 101
53 30 101
54 31 101
53 32 101
44 34 101
42 36 101
43 37 101
43 38 101
53 38 101
61 38 101
62 37 101
62 35 101
60 35 101
58 32 101
57 33 101
55 33 101
54 32 101
56 30 101
73 26 101
76 23 101
76 20 101
73 16 101
63 12 101
62 11 101
62 9 101
64 7 101
68 6 101
70 4 101
69 3 101
69 2 101
49 6 101
47 8 101
45 8 101
44 9 101
44 11 101
43 12 101
33 15 101
29 20 101
47 22 106
47 23 106
56 24 106
58 23 106
59 22 106
59 20 106
58 19 106
51 18 106
50 19 106
45 20 106
47 158 106
48 157 106
48 155 106
47 155 106
