ply
format ascii 1.0
element vertex 2068
property float x
property float y
property float z
element face 0
property list uchar int vertex_index
end_header
85 56 11
86 57 11
115 61 11
118 64 11
118 65 11
109 72 11
110 73 11
154 68 11
153 67 11
140 63 11
139 62 11
139 61 11
147 55 11
169 46 11
170 45 11
168 43 11
167 44 11
138 54 11
137 55 11
114 57 11
113 56 11
85 54 11
65 54 21
95 59 21
98 63 21
96 68 21
90 75 21
90 76 21
94 77 21
96 76 21
104 66 21
104 62 21
97 56 21
97 55 21
96 54 21
64 50 21
63 51 21
62 51 21
131 11 21
132 10 21
115 9 21
114 10 21
88 17 21
86 19 21
84 19 21
153 61 21
168 70 21
174 70 21
175 69 21
175 68 21
168 65 21
158 57 21
158 55 21
188 37 21
188 36 21
187 35 21
166 44 21
153 54 21
153 56 21
152 57 21
46 52 31
73 51 31
74 52 31
86 55 31
89 58 31
88 65 31
78 79 31
79 80 31
82 80 31
93 65 31
93 54 31
53 47 31
52 48 31
46 49 31
45 50 31
67 33 31
68 32 31
138 14 31
139 15 31
166 16 31
167 15 31
173 14 31
173 13 31
161 10 31
160 11 31
142 11 31
120 10 31
119 11 31
91 21 31
90 22 31
51 29 31
50 30 31
162 57 31
164 59 31
164 60 31
165 60 31
183 72 31
190 73 31
191 72 31
191 71 31
180 66 31
166 56 31
165 54 31
165 51 31
187 37 31
200 33 31
202 31 31
202 30 31
201 29 31
175 39 31
164 47 31
161 47 31
35 53 41
36 52 41
51 46 41
56 42 41
56 40 41
42 32 41
37 32 41
35 34 41
35 35 41
40 37 41
44 40 41
44 43 41
33 50 41
70 53 41
85 53 41
86 54 41
85 60 41
70 82 41
70 83 41
73 84 41
88 62 41
89 53 41
88 51 41
80 45 41
79 43 41
79 42 41
92 31 41
92 30 41
101 15 41
103 5 41
94 5 41
93 6 41
94 18 41
93 19 41
92 25 41
87 31 41
86 31 41
82 34 41
74 37 41
70 40 41
165 29 41
176 30 41
178 32 41
178 33 41
166 44 41
164 44 41
166 56 41
185 70 41
204 75 41
204 74 41
205 73 41
202 71 41
183 65 41
168 53 41
167 51 41
168 47 41
186 34 41
212 28 41
212 25 41
188 28 41
187 27 41
188 24 41
195 15 41
195 13 41
190 12 41
188 13 41
177 21 41
163 22 41
162 21 41
155 19 41
141 2 41
133 3 41
26 54 51
27 54 51
33 49 51
34 49 51
34 48 51
36 46 51
36 40 51
29 34 51
27 34 51
25 36 51
25 37 51
26 37 51
31 42 51
31 45 51
24 51 51
64 87 51
67 86 51
67 85 51
86 61 51
90 47 51
89 46 51
90 24 51
89 23 51
85 5 51
80 5 51
87 33 51
86 34 51
80 34 51
80 52 51
80 54 51
83 54 51
84 55 51
81 63 51
62 85 51
136 90 51
160 86 51
169 79 51
175 80 51
179 85 51
181 86 51
193 86 51
194 85 51
195 77 51
198 75 51
205 74 51
206 75 51
215 75 51
216 74 51
216 72 51
191 71 51
177 70 51
170 60 51
166 46 51
168 43 51
167 40 51
164 36 51
155 4 51
151 4 51
150 5 51
150 14 51
151 14 51
152 13 51
154 16 51
154 19 51
153 20 51
151 20 51
159 30 51
163 44 51
161 46 51
150 49 51
150 61 51
153 64 51
153 66 51
150 69 51
150 70 51
155 70 51
156 71 51
134 89 51
200 27 51
220 26 51
221 25 51
221 24 51
220 23 51
208 22 51
206 20 51
207 12 51
204 11 51
203 12 51
202 12 51
200 18 51
24 43 61
24 47 61
18 53 61
18 55 61
19 55 61
20 56 61
26 51 61
26 50 61
28 48 61
27 40 61
21 35 61
20 35 61
18 37 61
56 88 61
57 89 61
59 89 61
68 81 61
74 80 61
84 88 61
100 87 61
102 85 61
102 82 61
104 80 61
128 83 61
129 82 61
145 78 61
156 68 61
156 67 61
162 57 61
163 49 61
161 46 61
165 22 61
164 21 61
162 5 61
160 5 61
159 6 61
160 17 61
159 18 61
160 37 61
157 40 61
156 44 61
157 45 61
155 63 61
146 73 61
145 73 61
139 77 61
122 79 61
121 78 61
112 75 61
102 66 61
102 65 61
96 56 61
96 54 61
93 50 61
93 47 61
96 43 61
95 33 61
73 3 61
69 3 61
68 4 61
68 5 61
88 33 61
88 34 61
87 35 61
69 35 61
68 35 61
68 53 61
68 54 61
92 56 61
95 61 61
98 73 61
97 74 61
79 74 61
66 78 61
56 86 61
203 84 61
204 85 61
209 85 61
210 84 61
210 78 61
215 74 61
224 74 61
225 73 61
225 70 61
210 71 61
210 72 61
205 76 61
204 78 61
204 81 61
203 82 61
210 25 61
227 25 61
227 22 61
226 21 61
221 22 61
220 21 61
217 21 61
215 19 61
215 11 61
212 10 61
211 11 61
211 12 61
210 13 61
13 39 71
14 39 71
20 44 71
19 50 71
13 55 71
13 56 71
15 58 71
22 52 71
24 44 71
23 42 71
16 36 71
14 36 71
13 37 71
51 90 71
55 89 71
60 85 71
64 85 71
71 91 71
72 90 71
74 90 71
75 89 71
72 85 71
73 84 71
75 84 71
75 81 71
54 84 71
50 88 71
70 13 71
91 20 71
101 29 71
102 31 71
102 35 71
100 37 71
99 36 71
92 36 71
95 60 71
111 78 71
112 78 71
121 84 71
133 83 71
132 82 71
118 78 71
109 71 71
109 61 71
103 62 71
102 63 71
95 52 71
96 47 71
109 33 71
109 27 71
99 16 71
98 16 71
96 14 71
68 8 71
60 1 71
59 2 71
57 2 71
56 3 71
56 53 71
75 55 71
75 37 71
75 36 71
57 36 71
56 36 71
149 82 71
155 77 71
155 76 71
161 67 71
162 57 71
161 56 71
160 52 71
152 42 71
152 39 71
165 28 71
168 8 71
167 7 71
167 6 71
164 6 71
163 24 71
147 35 71
146 37 71
147 43 71
151 48 71
150 49 71
146 50 71
146 61 71
150 61 71
156 67 71
156 68 71
147 78 71
146 78 71
142 81 71
137 82 71
214 84 71
218 84 71
219 75 71
223 72 71
232 71 71
233 70 71
233 68 71
216 71 71
214 76 71
216 25 71
233 24 71
232 21 71
226 22 71
225 21 71
222 21 71
220 19 71
219 14 71
220 13 71
220 10 71
217 9 71
216 10 71
19 46 81
19 49 81
10 58 81
10 59 81
11 60 81
13 60 81
20 54 81
22 45 81
21 43 81
12 36 81
10 36 81
9 37 81
46 90 81
48 90 81
54 85 81
57 85 81
63 91 81
65 91 81
66 90 81
66 88 81
62 84 81
63 83 81
67 83 81
67 82 81
49 83 81
44 88 81
53 10 81
60 11 81
61 10 81
67 11 81
67 10 81
70 8 81
77 6 81
77 5 81
76 5 81
74 3 81
57 7 81
55 6 81
50 2 81
46 3 81
45 4 81
45 52 81
67 54 81
67 36 81
49 36 81
45 36 81
94 59 81
105 74 81
108 74 81
108 61 81
107 62 81
103 62 81
102 63 81
96 54 81
96 49 81
111 38 81
125 35 81
126 36 81
132 38 81
156 60 81
156 66 81
160 70 81
159 74 81
156 78 81
156 79 81
160 80 81
164 74 81
162 60 81
156 54 81
156 36 81
156 27 81
157 26 81
164 26 81
164 25 81
169 21 81
169 20 81
171 18 81
172 7 81
171 7 81
170 6 81
169 7 81
168 7 81
166 19 81
163 21 81
134 24 81
133 23 81
113 18 81
113 19 81
121 29 81
113 34 81
103 38 81
93 47 81
93 49 81
92 50 81
219 26 81
224 25 81
225 26 81
237 25 81
237 23 81
236 22 81
227 23 81
225 22 81
222 19 81
223 10 81
222 9 81
219 9 81
220 83 81
224 83 81
223 72 81
226 69 81
238 68 81
239 67 81
239 65 81
232 64 81
231 65 81
223 67 81
220 70 81
219 70 81
20 47 91
19 51 91
8 61 91
8 62 91
9 63 91
11 63 91
22 53 91
23 51 91
23 45 91
20 41 91
19 41 91
9 35 91
7 35 91
7 36 91
6 37 91
36 8 91
44 14 91
62 10 91
62 7 91
64 5 91
64 4 91
61 2 91
52 10 91
47 10 91
40 4 91
38 4 91
36 6 91
39 52 91
62 53 91
62 38 91
44 38 91
39 38 91
43 89 91
48 83 91
50 82 91
53 83 91
59 89 91
59 90 91
61 90 91
62 89 91
62 87 91
59 84 91
60 83 91
62 83 91
62 81 91
58 82 91
53 79 91
49 78 91
48 79 91
46 79 91
39 87 91
94 60 91
99 66 91
101 66 91
100 61 91
95 54 91
95 49 91
108 40 91
108 39 91
107 38 91
99 41 91
92 47 91
92 49 91
91 50 91
6 38 101
20 43 101
24 46 101
24 50 101
7 64 101
7 65 101
8 66 101
12 65 101
27 53 101
28 51 101
29 40 101
27 40 101
27 42 101
26 43 101
16 37 101
5 34 101
4 35 101
28 12 101
37 22 101
39 23 101
41 23 101
42 24 101
43 23 101
47 22 101
55 12 101
57 11 101
58 11 101
58 5 101
57 4 101
55 4 101
45 18 101
40 17 101
32 8 101
31 8 101
30 7 101
29 8 101
28 8 101
27 9 101
4 36 111
35 45 111
36 46 111
36 48 111
8 67 111
7 67 111
7 69 111
8 70 111
14 68 111
31 57 111
35 56 111
37 58 111
30 86 111
33 86 111
41 63 111
43 61 111
45 61 111
59 84 111
59 85 111
61 85 111
62 84 111
62 81 111
47 53 111
48 52 111
62 53 111
62 49 111
63 48 111
88 57 111
90 55 111
89 54 111
90 37 111
87 34 111
56 43 111
55 42 111
55 27 111
54 28 111
51 28 111
50 29 111
49 28 111
55 6 111
53 6 111
51 9 111
44 31 111
41 34 111
40 34 111
23 10 111
20 11 111
21 16 111
31 32 111
29 34 111
20 35 111
19 36 111
18 35 111
3 32 111
3 33 111
2 34 111
170 47 111
189 37 111
197 40 111
206 47 111
182 63 111
180 63 111
170 54 111
170 62 111
171 63 111
170 64 111
171 71 111
189 65 111
190 64 111
191 65 111
191 83 111
191 84 111
194 86 111
196 86 111
198 84 111
208 55 111
209 54 111
210 54 111
225 79 111
226 82 111
228 84 111
229 83 111
230 83 111
227 75 111
216 56 111
216 51 111
217 50 111
250 56 111
251 55 111
251 53 111
228 47 111
225 44 111
225 43 111
247 29 111
247 27 111
246 26 111
239 29 111
224 38 111
222 38 111
221 37 111
221 26 111
218 26 111
217 25 111
221 6 111
218 6 111
210 38 111
208 40 111
207 40 111
190 13 111
190 12 111
188 10 111
186 10 111
185 11 111
185 28 111
184 29 111
169 24 111
1 34 121
24 35 121
19 14 121
17 12 121
16 12 121
14 14 121
15 15 121
19 29 121
15 32 121
2 31 121
1 32 121
8 73 121
9 74 121
25 69 121
27 71 121
26 85 121
28 87 121
29 87 121
30 86 121
31 69 121
30 67 121
27 64 121
8 70 121
52 30 121
55 33 121
55 35 121
73 35 121
79 35 121
78 25 121
76 23 121
58 27 121
55 24 121
56 7 121
55 6 121
54 6 121
52 9 121
52 14 121
51 15 121
62 81 121
63 82 121
66 81 121
61 61 121
63 59 121
69 58 121
70 59 121
79 59 121
80 60 121
81 59 121
82 59 121
82 56 121
81 56 121
79 54 121
61 54 121
58 55 121
55 59 121
170 38 121
171 38 121
187 49 121
187 52 121
184 56 121
183 56 121
178 61 121
177 61 121
173 57 121
174 67 121
178 66 121
192 54 121
194 29 121
194 18 121
195 17 121
202 25 121
202 43 121
202 53 121
204 53 121
210 49 121
217 48 121
218 47 121
218 29 121
218 27 121
209 27 121
208 26 121
214 19 121
218 5 121
217 4 121
215 4 121
210 17 121
207 20 121
204 20 121
200 17 121
200 16 121
193 8 121
192 8 121
190 11 121
190 29 121
190 41 121
189 42 121
186 41 121
173 33 121
171 33 121
171 34 121
170 35 121
202 85 121
202 87 121
203 88 121
206 88 121
210 78 121
214 73 121
217 73 121
228 85 121
229 85 121
230 84 121
229 80 121
220 70 121
202 68 121
235 43 121
235 45 121
245 51 121
252 53 121
253 52 121
253 49 121
242 45 121
239 42 121
239 39 121
250 29 121
249 28 121
249 27 121
245 28 121
237 35 121
237 36 121
235 38 121
235 40 121
234 41 121
3 33 131
8 29 131
8 28 131
19 18 131
0 1 131
-1 1 131
-3 3 131
-3 4 131
9 14 131
8 18 131
0 26 131
9 76 131
10 77 131
21 74 131
25 79 131
25 87 131
28 87 131
27 74 131
24 71 131
19 70 131
18 71 131
10 73 131
9 74 131
55 18 131
59 22 131
73 20 131
74 19 131
73 16 131
61 18 131
58 15 131
57 5 131
55 5 131
54 6 131
65 34 131
74 34 131
74 27 131
65 27 131
67 77 131
69 79 131
72 78 131
70 66 131
74 63 131
81 63 131
82 62 131
82 60 131
81 59 131
68 61 131
65 65 131
177 53 131
176 58 131
175 59 131
171 59 131
171 64 131
173 66 131
178 62 131
178 61 131
181 57 131
182 52 131
181 50 131
172 43 131
168 43 131
168 45 131
167 46 131
192 9 131
200 16 131
209 15 131
214 7 131
214 3 131
211 3 131
210 4 131
210 6 131
205 12 131
204 12 131
203 13 131
194 6 131
193 6 131
192 7 131
208 34 131
214 34 131
214 27 131
208 27 131
208 50 131
213 49 131
214 48 131
214 43 131
208 43 131
208 89 131
209 90 131
211 90 131
214 83 131
217 80 131
221 80 131
228 86 131
230 86 131
230 83 131
221 76 131
216 76 131
215 77 131
214 76 131
208 76 131
241 42 131
252 50 131
253 50 131
255 48 131
255 47 131
245 41 131
244 39 131
245 36 131
251 29 131
251 28 131
250 27 131
248 27 131
241 36 131
1 33 141
10 32 141
11 31 141
12 32 141
12 33 141
15 33 141
13 15 141
11 15 141
10 16 141
12 25 141
11 27 141
8 29 141
1 30 141
11 79 141
21 78 141
23 79 141
24 80 141
25 87 141
26 88 141
29 88 141
26 77 141
21 74 141
11 76 141
57 14 141
62 17 141
71 15 141
72 14 141
71 11 141
70 12 141
62 13 141
59 10 141
58 4 141
55 4 141
1 33 151
2 34 151
9 32 151
11 30 151
12 31 151
12 33 151
13 34 151
12 17 151
11 16 151
10 16 151
8 18 151
9 19 151
10 26 151
5 30 151
1 30 151
14 80 151
14 81 151
24 80 151
27 84 151
28 89 151
31 89 151
29 80 151
23 76 151
13 78 151
57 12 151
62 16 151
72 14 151
73 13 151
73 12 151
71 10 151
68 12 151
64 13 151
62 12 151
59 8 151
58 3 151
56 3 151
55 4 151
76 72 151
78 74 151
81 73 151
81 63 151
79 63 151
78 62 151
89 54 151
89 52 151
88 51 151
84 52 151
77 57 151
77 58 151
75 60 151
75 62 151
74 63 151
166 54 151
168 54 151
169 55 151
169 62 151
171 62 151
172 63 151
170 68 151
169 69 151
171 71 151
172 71 151
175 67 151
176 57 151
175 55 151
170 51 151
164 50 151
163 51 151
185 10 151
186 11 151
196 13 151
197 12 151
201 11 151
206 4 151
206 2 151
204 2 151
203 1 151
197 9 151
186 7 151
185 8 151
212 91 151
214 91 151
219 84 151
223 84 151
227 87 151
229 87 151
230 86 151
230 85 151
225 81 151
222 81 151
221 80 151
220 81 151
217 81 151
211 89 151
244 39 151
251 45 151
253 45 151
254 44 151
254 42 151
251 41 151
247 37 151
248 31 151
250 29 151
250 27 151
249 26 151
247 26 151
243 33 151
2 34 161
3 35 161
11 33 161
14 30 161
15 23 161
14 22 161
13 18 161
12 17 161
11 18 161
10 18 161
11 27 161
6 31 161
3 31 161
2 32 161
17 81 161
18 82 161
27 80 161
29 81 161
32 86 161
32 89 161
36 89 161
34 81 161
29 77 161
18 78 161
17 79 161
57 14 161
62 19 161
74 18 161
74 17 161
75 16 161
77 18 161
77 14 161
75 12 161
63 15 161
59 9 161
58 3 161
56 3 161
55 4 161
73 35 161
77 35 161
77 25 161
73 25 161
75 67 161
81 74 161
82 74 161
83 73 161
83 64 161
78 63 161
76 60 161
76 58 161
80 53 161
81 53 161
94 42 161
95 40 161
95 38 161
91 39 161
74 53 161
73 55 161
156 47 161
158 49 161
169 52 161
170 53 161
170 62 161
173 62 161
174 63 161
173 68 161
171 70 161
170 74 161
171 75 161
173 75 161
178 66 161
180 58 161
179 57 161
178 53 161
170 48 161
156 45 161
174 18 161
195 16 161
201 7 161
202 3 161
199 2 161
197 5 161
195 11 161
191 14 161
177 12 161
174 15 161
174 35 161
180 35 161
180 25 161
174 25 161
174 44 161
180 44 161
180 38 161
174 38 161
211 91 161
212 91 161
217 83 161
228 86 161
229 85 161
229 84 161
221 79 161
215 80 161
210 86 161
210 88 161
209 89 161
242 38 161
250 44 161
251 44 161
252 43 161
252 41 161
245 36 161
245 35 161
244 34 161
245 33 161
246 29 161
248 27 161
248 26 161
247 25 161
244 25 161
244 26 161
242 28 161
242 30 161
241 31 161
5 36 171
16 34 171
19 29 171
17 20 171
15 18 171
14 18 171
12 20 171
15 25 171
15 29 171
11 32 171
5 33 171
21 81 171
22 82 171
32 79 171
33 78 171
38 82 171
39 84 171
40 89 171
44 89 171
45 88 171
42 78 171
37 75 171
22 78 171
21 79 171
59 23 171
65 28 171
67 28 171
68 29 171
68 36 171
81 36 171
82 37 171
70 47 171
68 55 171
69 56 171
71 62 171
83 75 171
84 75 171
86 77 171
89 77 171
90 64 171
77 63 171
76 62 171
76 48 171
98 33 171
107 30 171
108 29 171
108 27 171
107 26 171
106 27 171
92 31 171
91 30 171
91 17 171
90 16 171
64 22 171
61 19 171
58 4 171
55 4 171
136 52 171
140 52 171
150 45 171
161 44 171
162 45 171
168 46 171
170 48 171
170 62 171
176 63 171
177 64 171
175 69 171
170 76 171
170 79 171
171 80 171
172 80 171
183 62 171
184 51 171
182 49 171
182 48 171
181 48 171
175 44 171
176 43 171
184 43 171
184 31 171
192 25 171
198 5 171
197 4 171
194 4 171
191 19 171
187 23 171
143 30 171
139 33 171
139 47 171
136 50 171
205 89 171
207 89 171
208 90 171
209 89 171
211 82 171
215 79 171
216 80 171
220 81 171
225 85 171
226 85 171
227 84 171
227 82 171
218 76 171
209 77 171
209 78 171
206 82 171
206 85 171
205 86 171
237 37 171
246 43 171
248 43 171
249 42 171
249 40 171
248 39 171
242 37 171
240 35 171
241 29 171
244 25 171
242 23 171
240 23 171
240 24 171
236 30 171
9 39 181
23 37 181
24 36 181
25 37 181
25 39 181
27 39 181
25 25 181
20 19 181
18 19 181
17 20 181
19 25 181
22 29 181
22 31 181
19 34 181
9 35 181
8 36 181
26 80 181
27 81 181
29 81 181
43 72 181
46 72 181
50 76 181
53 87 181
54 88 181
61 88 181
63 86 181
63 68 181
63 63 181
42 68 181
26 78 181
56 22 181
56 39 181
58 39 181
59 40 181
60 44 181
61 45 181
60 46 181
65 61 181
84 75 181
104 78 181
105 77 181
116 73 181
129 61 181
129 60 181
140 47 181
141 40 181
140 38 181
126 29 181
109 25 181
106 22 181
106 13 181
102 13 181
99 17 181
98 24 181
99 24 181
103 27 181
109 28 181
121 38 181
130 41 181
135 45 181
135 47 181
130 53 181
121 54 181
113 60 181
98 63 181
98 73 181
97 74 181
84 71 181
70 59 181
70 58 181
65 51 181
65 48 181
69 42 181
69 38 181
65 37 181
62 34 181
59 5 181
56 5 181
167 85 181
168 85 181
190 55 181
194 10 181
194 6 181
193 5 181
190 5 181
190 23 181
189 36 181
184 40 181
182 62 181
165 83 181
197 87 181
198 88 181
202 88 181
205 73 181
206 72 181
211 73 181
222 82 181
224 82 181
225 81 181
225 79 181
206 66 181
200 65 181
198 67 181
198 70 181
197 71 181
227 36 181
232 40 181
242 42 181
243 43 181
245 41 181
245 40 181
244 39 181
235 37 181
232 34 181
233 29 181
238 23 181
235 21 181
234 21 181
226 31 181
14 42 191
49 48 191
52 51 191
51 56 191
36 73 191
35 73 191
31 77 191
31 79 191
32 79 191
33 80 191
48 66 191
48 65 191
56 53 191
55 47 191
54 47 191
48 42 191
48 40 191
49 39 191
56 39 191
58 36 191
61 7 191
60 6 191
60 5 191
57 5 191
57 23 191
56 31 191
53 34 191
42 31 191
27 19 191
23 20 191
23 21 191
38 35 191
38 36 191
39 37 191
36 39 191
16 38 191
15 39 191
14 39 191
87 87 191
92 88 191
93 87 191
104 86 191
105 85 191
106 79 191
110 74 191
111 74 191
128 58 191
128 57 191
134 49 191
135 44 191
134 43 191
134 41 191
130 36 191
129 36 191
117 27 191
116 16 191
117 15 191
117 11 191
112 11 191
110 29 191
121 38 191
128 40 191
131 44 191
129 50 191
125 54 191
121 54 191
113 60 191
111 60 191
110 61 191
110 70 191
87 85 191
158 88 191
163 87 191
173 80 191
175 80 191
176 79 191
182 84 191
183 87 191
185 89 191
190 88 191
187 76 191
185 74 191
180 73 191
179 74 191
167 79 191
157 86 191
184 17 191
190 25 191
194 35 191
196 37 191
204 38 191
205 39 191
205 40 191
200 45 191
196 45 191
199 56 191
218 78 191
220 79 191
221 79 191
222 78 191
222 76 191
200 51 191
201 48 191
206 45 191
229 42 191
230 43 191
238 43 191
239 42 191
239 40 191
213 38 191
212 37 191
212 36 191
229 21 191
229 20 191
228 19 191
223 19 191
210 28 191
197 30 191
192 23 191
188 4 191
184 4 191
184 61 191
184 64 191
190 65 191
190 47 191
190 45 191
189 44 191
184 44 191
20 45 201
23 47 201
45 52 201
49 56 201
48 62 201
37 75 201
37 77 201
38 78 201
41 77 201
52 62 201
51 52 201
43 47 201
20 43 201
32 21 201
40 26 201
52 29 201
53 28 201
56 28 201
63 19 201
64 5 201
61 5 201
60 6 201
59 20 201
55 24 201
34 18 201
33 19 201
32 19 201
118 81 201
123 85 201
148 88 201
149 87 201
163 85 201
165 86 201
171 91 201
176 90 201
176 88 201
171 83 201
149 82 201
148 83 201
129 80 201
123 73 201
124 72 201
129 72 201
130 71 201
130 53 201
130 41 201
123 33 201
122 28 201
123 27 201
123 24 201
124 23 201
130 23 201
130 22 201
129 21 201
126 21 201
125 20 201
126 16 201
128 14 201
130 14 201
130 8 201
129 7 201
124 8 201
124 9 201
122 11 201
118 29 201
119 30 201
120 35 201
127 44 201
126 50 201
123 54 201
121 54 201
118 57 201
116 68 201
173 5 201
173 6 201
172 7 201
171 7 201
171 12 201
175 12 201
176 13 201
176 11 201
177 10 201
193 23 201
215 19 201
217 17 201
213 14 201
193 18 201
192 17 201
188 16 201
177 2 201
171 3 201
171 59 201
171 62 201
176 63 201
176 45 201
176 43 201
171 42 201
202 59 201
217 76 201
219 74 201
204 55 201
204 52 201
209 48 201
232 44 201
232 41 201
201 45 201
28 51 211
47 57 211
51 61 211
50 66 211
43 75 211
43 76 211
44 77 211
47 77 211
54 67 211
54 58 211
53 58 211
46 52 211
28 48 211
60 22 211
61 21 211
63 21 211
70 12 211
70 5 211
66 5 211
64 15 211
61 18 211
44 16 211
42 18 211
125 48 211
124 49 211
123 57 211
124 58 211
127 67 211
132 73 211
133 73 211
157 91 211
162 91 211
163 90 211
156 83 211
156 65 211
156 62 211
157 61 211
163 62 211
163 44 211
163 43 211
157 43 211
156 42 211
156 24 211
156 13 211
157 12 211
165 10 211
166 11 211
190 14 211
191 13 211
199 12 211
199 11 211
195 8 211
174 9 211
173 8 211
151 4 211
150 5 211
144 6 211
132 16 211
132 17 211
127 24 211
123 36 211
202 61 211
211 72 211
213 72 211
214 71 211
214 69 211
204 57 211
204 53 211
210 49 211
224 46 211
225 45 211
225 44 211
224 43 211
204 48 211
201 52 211
37 56 221
52 61 221
56 65 221
54 72 221
52 74 221
52 76 221
53 77 221
57 77 221
57 76 221
60 72 221
61 61 221
60 60 221
37 53 221
69 19 221
70 18 221
76 16 221
81 9 221
81 6 221
80 5 221
75 5 221
74 11 221
70 15 221
55 14 221
53 16 221
125 47 221
124 48 221
123 56 221
124 57 221
129 71 221
141 88 221
143 89 221
148 89 221
148 87 221
131 64 221
133 62 221
148 61 221
148 44 221
130 44 221
128 44 221
127 43 221
127 41 221
126 40 221
127 39 221
131 29 221
141 18 221
142 18 221
152 12 221
175 7 221
176 6 221
163 4 221
162 5 221
144 11 221
129 24 221
129 25 221
125 30 221
123 36 221
198 61 221
205 69 221
208 69 221
209 68 221
201 58 221
201 54 221
206 50 221
215 48 221
216 47 221
216 45 221
202 48 221
198 51 221
197 53 221
51 62 231
64 66 231
67 69 231
65 76 231
64 77 231
71 79 231
72 78 231
73 78 231
73 77 231
75 75 231
75 63 231
49 58 231
48 59 231
66 17 231
106 22 231
125 42 231
126 42 231
128 44 231
128 46 231
129 47 231
127 50 231
126 50 231
113 60 231
114 73 231
123 84 231
125 85 231
131 85 231
130 81 231
120 66 231
120 65 231
121 64 231
131 63 231
132 44 231
131 42 231
121 33 231
121 32 231
118 28 231
118 24 231
138 8 231
138 7 231
111 9 231
110 8 231
91 7 231
91 11 231
87 15 231
67 14 231
66 15 231
191 61 231
198 67 231
201 65 231
196 60 231
196 53 231
200 50 231
207 48 231
207 46 231
206 45 231
193 49 231
189 54 231
67 66 241
98 68 241
99 67 241
132 57 241
135 55 241
143 52 241
145 50 241
145 47 241
105 22 241
83 16 241
82 17 241
82 18 241
83 19 241
113 30 241
137 46 241
137 49 241
131 53 241
94 63 241
93 64 241
65 62 241
64 63 241
173 55 241
184 64 241
189 63 241
189 62 241
182 55 241
182 53 241
186 50 241
194 48 241
195 47 241
193 45 241
174 50 241
174 51 241
173 52 241
94 67 251
151 60 251
152 61 251
164 62 251
165 61 251
170 60 251
169 59 251
139 56 251
138 57 251
93 64 251
92 65 251
129 35 251
134 38 251
175 46 251
176 45 251
172 42 251
131 32 251
130 31 251
109 23 251
108 24 251
107 24 251
