ply
format ascii 1.0
element vertex 256
property float x
property float y
property float z
element face 0
property list uchar int vertex_index
end_header
159 251 21
161 253 21
179 248 21
181 246 21
182 246 21
182 245 21
185 241 21
186 231 21
174 232 21
173 231 21
164 232 21
158 241 21
164 243 41
171 249 41
176 249 41
177 250 41
178 249 41
188 250 41
189 251 41
192 249 41
192 248 41
204 238 41
205 230 41
207 228 41
207 224 41
199 219 41
194 218 41
193 219 41
188 220 41
187 219 41
169 216 41
168 217 41
164 218 41
164 219 41
162 221 41
162 223 41
161 224 41
1 16 61
2 17 61
3 16 61
7 16 61
12 11 61
13 11 61
13 10 61
5 7 61
4 8 61
1 8 61
1 188 61
2 189 61
6 186 61
9 186 61
15 180 61
26 178 61
32 174 61
53 177 61
54 176 61
82 175 61
104 189 61
145 196 61
148 200 61
149 204 61
158 213 61
158 214 61
159 214 61
164 220 61
165 220 61
175 228 61
193 232 61
194 231 61
200 229 61
205 221 61
202 207 61
195 199 61
194 199 61
176 188 61
162 186 61
161 187 61
157 187 61
152 183 61
151 181 61
154 163 61
151 158 61
148 148 61
142 140 61
140 127 61
141 126 61
146 94 61
153 82 61
155 61 61
154 60 61
148 40 61
142 33 61
141 33 61
135 29 61
104 26 61
103 27 61
93 28 61
92 27 61
88 26 61
78 16 61
78 15 61
77 15 61
75 13 61
47 10 61
46 11 61
42 11 61
42 12 61
45 13 61
84 41 61
85 41 61
83 38 61
83 37 61
84 36 61
97 39 61
100 42 61
95 45 61
86 43 61
98 54 61
98 55 61
101 59 61
105 75 61
89 99 61
86 119 61
85 120 61
86 121 61
90 137 61
96 145 61
97 150 61
93 154 61
86 155 61
85 154 61
83 154 61
82 155 61
81 159 61
80 160 61
26 172 61
25 171 61
19 172 61
19 173 61
15 178 61
13 179 61
7 179 61
6 178 61
3 180 61
1 180 61
30 12 61
31 11 61
35 11 61
36 10 61
37 11 61
38 11 61
29 4 61
22 3 61
17 9 61
16 9 61
87 177 81
91 182 81
92 182 81
99 187 81
171 210 81
172 209 81
180 208 81
183 204 81
184 190 81
183 189 81
181 182 81
156 148 81
158 63 81
157 62 81
153 43 81
144 32 81
127 30 81
126 31 81
118 34 81
104 46 81
104 47 81
101 51 81
103 72 81
86 96 81
81 114 81
1 159 101
2 159 101
5 156 101
7 156 101
14 151 101
77 167 101
97 180 101
102 181 101
113 189 101
122 190 101
123 191 101
124 190 101
136 187 101
142 179 101
143 160 101
138 151 101
136 135 101
137 134 101
149 92 101
154 84 101
156 61 101
155 60 101
150 43 101
142 34 101
122 30 101
121 31 101
111 35 101
95 45 101
67 38 101
66 37 101
65 38 101
53 40 101
52 41 101
52 42 101
77 60 101
79 60 101
99 73 101
97 76 101
99 85 101
100 86 101
93 99 101
90 117 101
91 118 101
96 134 101
105 147 101
105 148 101
93 156 101
83 158 101
81 160 101
71 161 101
69 160 101
68 159 101
68 157 101
69 156 101
64 152 101
22 139 101
15 144 101
9 145 101
8 144 101
1 145 101
2 46 101
4 46 101
6 44 101
9 44 101
9 43 101
11 41 101
11 38 101
8 35 101
2 36 101
19 35 101
20 36 101
27 35 101
27 33 101
25 31 101
21 31 101
19 33 101
