ply
format ascii 1.0
element vertex 392
property float x
property float y
property float z
element face 0
property list uchar int vertex_index
end_header
26 246 21
27 247 21
31 247 21
32 246 21
31 245 21
30 240 21
26 234 21
26 232 21
24 232 21
24 233 21
23 234 21
18 4 41
19 4 41
21 6 41
21 8 41
34 19 41
48 17 41
55 7 41
56 7 41
58 5 41
60 5 41
61 4 41
61 1 41
18 1 41
33 230 41
37 233 41
40 232 41
41 231 41
41 226 41
34 216 41
32 208 41
33 207 41
34 203 41
33 202 41
33 200 41
32 199 41
30 202 41
30 205 41
31 206 41
30 207 41
29 207 41
28 208 41
32 191 41
32 189 41
31 190 41
36 97 41
39 100 41
39 103 41
36 107 41
44 113 41
43 114 41
43 116 41
44 116 41
47 106 41
45 106 41
44 105 41
44 102 41
43 101 41
45 98 41
46 99 41
46 100 41
47 100 41
47 97 41
48 96 41
45 94 41
45 89 41
44 90 41
44 92 41
43 93 41
40 90 41
41 87 41
40 86 41
37 86 41
36 87 41
36 88 41
35 89 41
53 141 41
58 141 41
61 138 41
61 136 41
54 136 41
53 137 41
3 4 61
4 5 61
4 7 61
8 12 61
15 34 61
18 38 61
18 40 61
17 41 61
4 43 61
6 48 61
10 48 61
11 47 61
13 49 61
14 57 61
13 58 61
8 58 61
10 63 61
24 83 61
24 87 61
23 88 61
18 88 61
19 89 61
27 108 61
31 114 61
29 105 61
30 104 61
31 104 61
34 108 61
36 114 61
37 114 61
38 115 61
46 135 61
54 146 61
55 146 61
56 147 61
55 148 61
48 148 61
48 149 61
56 149 61
56 148 61
57 147 61
58 148 61
64 149 61
64 147 61
62 145 61
63 144 61
65 144 61
67 142 61
65 135 61
66 134 61
65 127 61
66 126 61
60 88 61
44 71 61
43 71 61
38 65 61
40 49 61
39 48 61
39 47 61
40 46 61
45 46 61
46 45 61
47 40 61
46 40 61
45 39 61
45 38 61
46 37 61
48 37 61
48 34 61
60 25 61
60 24 61
66 17 61
66 15 61
72 7 61
72 5 61
73 4 61
75 4 61
75 2 61
74 1 61
3 1 61
3 2 61
2 3 61
36 202 61
44 211 61
46 211 61
49 207 61
45 196 61
43 194 61
39 167 61
40 166 61
39 166 61
36 170 61
33 181 61
40 153 61
44 164 61
45 165 61
44 166 61
43 166 61
43 167 61
48 174 61
50 181 61
57 187 61
61 187 61
63 185 61
64 175 61
62 172 61
55 153 61
48 153 61
44 148 61
43 149 61
37 150 61
43 62 61
44 61 61
45 54 61
44 55 61
44 57 61
43 58 61
1 3 81
4 5 81
13 35 81
12 36 81
17 62 81
16 63 81
14 70 81
12 72 81
11 82 81
12 83 81
19 102 81
49 149 81
49 152 81
48 153 81
47 153 81
46 157 81
44 159 81
43 168 81
44 169 81
45 185 81
43 187 81
45 197 81
43 199 81
42 199 81
43 202 81
45 204 81
44 212 81
45 214 81
57 222 81
59 222 81
65 214 81
65 212 81
68 208 81
69 201 81
65 198 81
64 187 81
72 176 81
76 163 81
75 162 81
75 161 81
74 161 81
73 160 81
74 159 81
74 157 81
75 156 81
74 155 81
76 149 81
75 148 81
54 53 81
53 54 81
53 57 81
51 59 81
50 59 81
49 58 81
49 56 81
47 58 81
46 57 81
44 48 81
45 47 81
47 41 81
45 41 81
38 49 81
37 48 81
38 44 81
42 41 81
41 41 81
40 40 81
45 36 81
47 36 81
44 34 81
52 28 81
54 28 81
56 30 81
62 28 81
62 27 81
65 25 81
65 22 81
69 17 81
69 15 81
68 14 81
71 10 81
72 1 81
1 1 81
19 48 101
20 47 101
19 46 101
17 46 101
15 48 101
14 48 101
21 4 101
25 4 101
33 11 101
40 8 101
41 9 101
48 8 101
52 4 101
55 4 101
55 1 101
19 1 101
24 186 101
28 205 101
30 207 101
30 209 101
38 216 101
42 216 101
45 212 101
45 207 101
44 207 101
36 201 101
35 199 101
35 197 101
32 194 101
28 169 101
27 170 101
27 172 101
25 174 101
23 184 101
38 125 101
41 129 101
41 130 101
42 130 101
54 138 101
54 135 101
55 134 101
59 134 101
58 133 101
55 133 101
47 126 101
47 125 101
46 124 101
47 123 101
48 123 101
54 127 101
55 124 101
54 123 101
51 123 101
49 121 101
50 120 101
51 120 101
47 114 101
46 110 101
45 109 101
44 110 101
43 109 101
43 107 101
38 103 101
36 103 101
35 104 101
35 105 101
34 106 101
43 172 101
45 174 101
44 175 101
44 178 101
45 178 101
48 182 101
48 186 101
60 194 101
62 194 101
63 195 101
64 194 101
65 194 101
66 188 101
63 183 101
61 176 101
59 174 101
58 175 101
54 174 101
48 167 101
48 170 101
47 171 101
46 170 101
43 170 101
24 227 121
30 234 121
32 235 121
36 235 121
37 234 121
37 231 121
33 226 121
32 226 121
24 214 121
24 213 121
23 213 121
21 211 121
20 212 121
25 246 141
28 249 141
32 248 141
31 245 141
27 241 141
27 240 141
24 240 141
